<svg width="13" height="13" viewBox="0 0 13 13" fill="none" xmlns="http://www.w3.org/2000/svg">
<path d="M10.869 2.13149C10.6481 1.9106 10.2972 1.9106 10.0758 2.13149C9.85493 2.35239 9.85493 2.70328 10.0758 2.9247C12.0517 4.90057 12.0517 8.11144 10.0758 10.088C9.85493 10.3089 9.85493 10.6598 10.0758 10.8812C10.1799 10.9853 10.3226 11.0503 10.4658 11.0503C10.609 11.0503 10.7517 10.9985 10.8558 10.8812C13.2741 8.46291 13.2741 4.53652 10.869 2.13152L10.869 2.13149Z" fill="white"/>
<path d="M9.00966 3.97817C8.78876 3.75728 8.43787 3.75728 8.21645 3.97817C7.99556 4.19907 7.99556 4.54996 8.21645 4.77138C9.16556 5.72048 9.17824 7.28051 8.21645 8.22964C7.99556 8.45053 7.99556 8.80143 8.21645 9.02285C8.32055 9.12695 8.46324 9.19195 8.60645 9.19195C8.74966 9.19195 8.89235 9.14015 8.99645 9.02285C10.4137 7.63094 10.4006 5.3692 9.00965 3.9782L9.00966 3.97817Z" fill="white"/>
<path d="M2.92508 2.9247C3.14598 2.7038 3.14598 2.35291 2.92508 2.13149C2.70419 1.9106 2.35329 1.9106 2.13187 2.13149C-0.273125 4.53649 -0.273125 8.46236 2.13187 10.8674C2.23598 10.9715 2.37867 11.0365 2.52187 11.0365C2.66508 11.0365 2.80777 10.9847 2.91187 10.8674C3.13277 10.6465 3.13277 10.2956 2.91187 10.0742C0.949135 8.11141 0.949135 4.90054 2.92508 2.92467L2.92508 2.9247Z" fill="white"/>
<path d="M4.77191 4.7704C4.9928 4.54951 4.9928 4.19861 4.77191 3.9772C4.55101 3.7563 4.20012 3.7563 3.9787 3.9772C2.58783 5.36807 2.58783 7.63046 3.9787 9.02133C4.0828 9.12543 4.22549 9.19043 4.3687 9.19043C4.51191 9.19043 4.6546 9.13863 4.7587 9.02133C4.9796 8.80043 4.9796 8.44953 4.7587 8.22812C3.8228 7.27952 3.8228 5.71951 4.7719 4.77038L4.77191 4.7704Z" fill="white"/>
<path d="M7.44899 6.49989C7.44899 7.02394 7.02395 7.44899 6.49988 7.44899C5.97582 7.44899 5.55078 7.02396 5.55078 6.49989C5.55078 5.97582 5.97582 5.55078 6.49988 5.55078C7.02395 5.55078 7.44899 5.97582 7.44899 6.49989Z" fill="white"/>
</svg>
