<svg width="67" height="39" viewBox="0 0 67 39" fill="none" xmlns="http://www.w3.org/2000/svg">
<path d="M0.84375 1.12632C0.84375 0.689802 1.19761 0.335938 1.63413 0.335938H22.184C22.6205 0.335938 22.9744 0.689802 22.9744 1.12632V36.0568C22.9744 36.7999 22.0419 37.1323 21.5718 36.5567L12.5212 25.4744C12.205 25.0871 11.6131 25.0871 11.2969 25.4744L2.2463 36.5567C1.77624 37.1323 0.84375 36.7999 0.84375 36.0568V1.12632Z" fill="#FEB330"/>
<path d="M56.7483 5.38229C57.0101 4.71166 57.959 4.71166 58.2208 5.38229L59.7085 9.19358C59.8209 9.48136 60.0906 9.67732 60.399 9.69522L64.4835 9.93238C65.2022 9.97412 65.4954 10.8767 64.9385 11.3329L61.7735 13.9255C61.5345 14.1213 61.4315 14.4384 61.5098 14.7372L62.5464 18.6951C62.7288 19.3915 61.9611 19.9493 61.3551 19.5606L57.9113 17.3517C57.6512 17.1849 57.3179 17.1849 57.0578 17.3517L53.614 19.5606C53.008 19.9493 52.2403 19.3915 52.4227 18.6951L53.4593 14.7372C53.5376 14.4384 53.4346 14.1213 53.1956 13.9255L50.0306 11.3329C49.4736 10.8767 49.7669 9.97412 50.4856 9.93238L54.5701 9.69522C54.8785 9.67732 55.1482 9.48136 55.2605 9.19358L56.7483 5.38229Z" fill="#D0D0D0"/>
<path d="M11.1741 5.38229C11.4358 4.71166 12.3848 4.71166 12.6466 5.38229L14.1343 9.19358C14.2467 9.48136 14.5164 9.67732 14.8248 9.69522L18.9093 9.93238C19.628 9.97412 19.9212 10.8767 19.3643 11.3329L16.1993 13.9255C15.9603 14.1213 15.8573 14.4384 15.9356 14.7372L16.9722 18.6951C17.1546 19.3915 16.3868 19.9493 15.7809 19.5606L12.3371 17.3517C12.077 17.1849 11.7436 17.1849 11.4836 17.3517L8.03979 19.5606C7.43382 19.9493 6.66607 19.3915 6.84847 18.6951L7.88509 14.7372C7.96337 14.4384 7.86035 14.1213 7.62136 13.9255L4.45635 11.3329C3.89943 10.8767 4.19268 9.97412 4.91139 9.93238L8.99587 9.69522C9.30428 9.67732 9.57399 9.48136 9.68633 9.19358L11.1741 5.38229Z" fill="#1E1B1C"/>
<path d="M34.885 5.38229C35.1468 4.71166 36.0958 4.71166 36.3575 5.38229L37.8453 9.19358C37.9576 9.48136 38.2273 9.67732 38.5357 9.69522L42.6202 9.93238C43.3389 9.97412 43.6322 10.8767 43.0753 11.3329L39.9102 13.9255C39.6712 14.1213 39.5682 14.4384 39.6465 14.7372L40.6831 18.6951C40.8655 19.3915 40.0978 19.9493 39.4918 19.5606L36.048 17.3517C35.788 17.1849 35.4546 17.1849 35.1945 17.3517L31.7507 19.5606C31.1448 19.9493 30.377 19.3915 30.5594 18.6951L31.596 14.7372C31.6743 14.4384 31.5713 14.1213 31.3323 13.9255L28.1673 11.3329C27.6104 10.8767 27.9036 9.97412 28.6223 9.93238L32.7068 9.69522C33.0152 9.67732 33.2849 9.48136 33.3973 9.19358L34.885 5.38229Z" fill="#D0D0D0"/>
</svg>
