<svg width="18" height="18" viewBox="0 0 18 18" fill="none" xmlns="http://www.w3.org/2000/svg">
<path d="M2.24988 6.74951H0.749878V14.9995C0.749878 15.832 1.41738 16.4995 2.24988 16.4995H12.7499C13.5824 16.4995 14.2499 15.832 14.2499 14.9995H2.24988V6.74951ZM13.4999 3.74951V2.24951C13.4999 1.41701 12.8324 0.749512 11.9999 0.749512H8.99988C8.16738 0.749512 7.49988 1.41701 7.49988 2.24951V3.74951H3.74988V11.9995C3.74988 12.832 4.41738 13.4995 5.24988 13.4995H15.7499C16.5824 13.4995 17.2499 12.832 17.2499 11.9995V3.74951H13.4999ZM8.99988 2.24951H11.9999V3.74951H8.99988V2.24951ZM8.99988 11.2495V5.99951L13.1249 8.24951L8.99988 11.2495Z" fill="white"/>
</svg>
