<svg width="18" height="18" viewBox="0 0 18 18" fill="none" xmlns="http://www.w3.org/2000/svg">
<path d="M2.25 6.74966H0.75V14.9997C0.75 15.8322 1.4175 16.4997 2.25 16.4997H12.75C13.5825 16.4997 14.25 15.8322 14.25 14.9997H2.25V6.74966ZM13.5 3.74966V2.24966C13.5 1.41716 12.8325 0.749664 12 0.749664H9C8.1675 0.749664 7.5 1.41716 7.5 2.24966V3.74966H3.75V11.9997C3.75 12.8322 4.4175 13.4997 5.25 13.4997H15.75C16.5825 13.4997 17.25 12.8322 17.25 11.9997V3.74966H13.5ZM9 2.24966H12V3.74966H9V2.24966ZM9 11.2497V5.99966L13.125 8.24966L9 11.2497Z" fill="white"/>
</svg>
