<svg width="28" height="27" viewBox="0 0 28 27" fill="none" xmlns="http://www.w3.org/2000/svg">
<path fill-rule="evenodd" clip-rule="evenodd" d="M21.762 14.7614L13.6012 14.7614C13.1005 14.7614 12.6945 14.3793 12.6945 13.9079V6.22672C12.6945 5.75537 13.1005 5.37326 13.6012 5.37326C14.102 5.37326 14.508 5.75537 14.508 6.22672L14.508 11.8475L22.481 4.34303L23.7634 5.55001L15.7903 13.0545L21.762 13.0545C22.2628 13.0545 22.6688 13.4366 22.6688 13.9079C22.6688 14.3793 22.2628 14.7614 21.762 14.7614Z" fill="#1E1B1C"/>
<path d="M23.948 22.474C23.9549 22.6676 23.9198 22.8603 23.845 23.0394C23.7702 23.2184 23.6575 23.3796 23.5144 23.5121C21.4726 25.4155 18.7741 26.4818 15.9656 26.495C14.7058 26.4974 13.4561 26.2747 12.2766 25.8379C10.039 24.9819 7.9628 23.7614 6.13437 22.2273C4.26406 20.6978 2.67019 18.8662 1.4206 16.8105C0.424885 15.0842 -0.064614 13.1185 0.00684065 11.1332C0.0782953 9.14799 0.707887 7.22152 1.82521 5.56923C1.93351 5.40469 2.07614 5.26484 2.24356 5.15904C2.41099 5.05323 2.59936 4.9839 2.7961 4.95567C2.86368 4.94671 2.93177 4.94195 2.99995 4.94141C3.32543 4.94069 3.64054 5.05434 3.88885 5.26201L7.69033 8.41115C7.84053 8.53562 7.9624 8.68998 8.04798 8.86414C8.13356 9.0383 8.18091 9.22833 8.18693 9.4218C8.19296 9.61527 8.15752 9.80781 8.08294 9.98683C8.00836 10.1658 7.89632 10.3273 7.75414 10.4606L5.48106 12.5915C5.28835 12.7699 5.15978 13.0055 5.11481 13.2625C5.06984 13.5195 5.11092 13.7839 5.23182 14.0158C6.22399 15.8033 7.55341 17.3869 9.14843 18.6814C10.7167 20.007 12.5274 21.0242 14.4829 21.6783C14.5993 21.7148 14.7207 21.7334 14.8428 21.7334C15.0451 21.7331 15.2442 21.6832 15.4221 21.5882C15.6 21.4932 15.7512 21.356 15.8621 21.1891L17.5923 18.6095C17.7003 18.4474 17.842 18.3099 18.008 18.206C18.174 18.1022 18.3605 18.0345 18.5551 18.0074C18.6216 17.9987 18.6886 17.9943 18.7557 17.9941C19.0837 17.9927 19.4013 18.1074 19.6509 18.3173L23.4517 21.4626C23.6026 21.5866 23.725 21.741 23.8106 21.9154C23.8962 22.0898 23.943 22.2803 23.948 22.474Z" fill="#1E1B1C"/>
</svg>
