<svg width="29" height="28" viewBox="0 0 29 28" fill="none" xmlns="http://www.w3.org/2000/svg">
<path fill-rule="evenodd" clip-rule="evenodd" d="M22.0953 15.3781L13.8365 15.3781C13.3297 15.3781 12.9189 14.9673 12.9189 14.4605L12.9189 6.20172C12.9189 5.69492 13.3297 5.28408 13.8365 5.28408C14.3433 5.28408 14.7542 5.69492 14.7542 6.20172L14.7542 12.2451L22.8229 4.17639L24.1206 5.47413L16.0519 13.5429L22.0953 13.5429C22.6021 13.5429 23.0129 13.9537 23.0129 14.4605C23.0129 14.9673 22.6021 15.3781 22.0953 15.3781Z" fill="#4E218F"/>
<path d="M24.3068 23.6751C24.3138 23.8832 24.2783 24.0905 24.2026 24.283C24.1269 24.4755 24.0128 24.6488 23.8679 24.7912C21.8017 26.8377 19.0708 27.9842 16.2285 27.9985C14.9537 28.001 13.6889 27.7616 12.4953 27.2919C10.2309 26.3715 8.12969 25.0593 6.27931 23.4099C4.38653 21.7653 2.77353 19.796 1.50894 17.5858C0.501275 15.7296 0.00589941 13.6161 0.0782118 11.4816C0.150524 9.3471 0.787674 7.27577 1.91841 5.49924C2.02801 5.32233 2.17235 5.17198 2.34179 5.05822C2.51122 4.94446 2.70185 4.86991 2.90095 4.83955C2.96935 4.82992 3.03825 4.8248 3.10726 4.82422C3.43664 4.82344 3.75553 4.94564 4.00683 5.16893L7.85394 8.55486C8.00594 8.68868 8.12928 8.85465 8.21589 9.0419C8.30249 9.22916 8.35041 9.43348 8.35651 9.64149C8.3626 9.84951 8.32674 10.0565 8.25126 10.249C8.17579 10.4415 8.0624 10.6151 7.91852 10.7584L5.61815 13.0495C5.42312 13.2414 5.29301 13.4946 5.2475 13.7709C5.20199 14.0473 5.24356 14.3316 5.36592 14.581C6.36999 16.5028 7.71537 18.2055 9.32955 19.5973C10.9166 21.0225 12.7491 22.1163 14.7281 22.8196C14.8459 22.8588 14.9687 22.8788 15.0923 22.8788C15.297 22.8785 15.4985 22.8248 15.6785 22.7227C15.8585 22.6205 16.0116 22.473 16.1238 22.2935L17.8748 19.52C17.984 19.3457 18.1274 19.1978 18.2954 19.0862C18.4634 18.9746 18.6522 18.9018 18.8491 18.8726C18.9164 18.8633 18.9843 18.8585 19.0522 18.8583C19.3841 18.8568 19.7055 18.9801 19.9581 19.2059L23.8045 22.5876C23.9572 22.721 24.0811 22.8869 24.1677 23.0745C24.2543 23.262 24.3017 23.4668 24.3068 23.6751Z" fill="#4E218F"/>
</svg>
