<svg id="Layer_1" data-name="Layer 1" xmlns="http://www.w3.org/2000/svg" viewBox="0 0 56 32"><defs><style>.cls-1{fill:#feb330;}.cls-2{fill:#1e1b1c;}.cls-3{fill:#f8f4ea;}.cls-4{fill:#faf5ea;}.cls-5{fill:#faf5eb;}</style></defs><g id="lbocic.tif"><path class="cls-1" d="M44.12,15.22c-.18,0-.27.2-.39.32C41,18.27,38.27,21,35.55,23.73a3.21,3.21,0,0,1-2.51,1c-1.21,0-2.43,0-3.64,0s-2.42-.29-3.51.18-1.7,1.57-2.57,2.34l-.63.6a2.19,2.19,0,0,1-.25-.2Q19,24.26,15.58,20.82c-.07-.07-.13-.16-.2-.24l3.34-3.38c.69-.69,1.38-1.37,2.06-2.06a2.37,2.37,0,0,1,1.81-.75c2.64,0,5.27,0,7.9,0a2.54,2.54,0,0,1,2.7,2,2.51,2.51,0,0,1-1.76,2.88l-.17.1a1.49,1.49,0,0,0,1.59-.52c1.1-1.18,2.31-2.26,3.4-3.45a5.41,5.41,0,0,1,7.87-.31Z"/><path class="cls-2" d="M33.86.85c1,.42,1.26.78,1.26,1.92v8.45c0,.52,0,.52-.44.26-1-.56-2-1.12-2.91-1.7a1.53,1.53,0,0,0-.86-.24c-3.11,0-6.22,0-9.33,0a1.52,1.52,0,0,1-1.72-1.73c0-1.77,0-3.54,0-5.31A1.42,1.42,0,0,1,21.09.93H33.48c.1,0,.22,0,.29-.09ZM28.79,4.94a1.13,1.13,0,0,0-1.15-1.13,1.15,1.15,0,0,0,0,2.3A1.14,1.14,0,0,0,28.79,4.94Zm2.54,1.17A1.15,1.15,0,1,0,30.17,5,1.16,1.16,0,0,0,31.33,6.11ZM24,6.11A1.15,1.15,0,1,0,22.83,5,1.15,1.15,0,0,0,24,6.11Z"/><path class="cls-2" d="M33.77.85c-.07.11-.19.09-.29.09H21.09a.19.19,0,0,1,0-.08Z"/><path class="cls-3" d="M28.79,4.94a1.14,1.14,0,0,1-1.16,1.17,1.15,1.15,0,0,1,0-2.3A1.13,1.13,0,0,1,28.79,4.94Z"/><path class="cls-4" d="M31.33,6.11A1.15,1.15,0,1,1,32.47,5,1.15,1.15,0,0,1,31.33,6.11Z"/><path class="cls-5" d="M24,6.11a1.15,1.15,0,1,1,1.13-1.2A1.14,1.14,0,0,1,24,6.11Z"/><rect class="cls-2" x="15.9" y="17.41" width="4.04" height="15.4" rx="2.02" transform="translate(-12.51 20.03) rotate(-45)"/></g></svg>