<svg width="33" height="32" viewBox="0 0 33 32" fill="none" xmlns="http://www.w3.org/2000/svg">
<path d="M14.7806 25.4001C14.7806 25.3038 14.7806 25.2297 14.7806 25.1545C14.7806 22.2671 14.777 19.3809 14.7817 16.4935C14.7841 15.2008 15.8357 14.2995 17.1249 14.4699C18.0553 14.5933 18.7976 15.3783 18.8446 16.2973C18.854 16.4877 18.8517 16.678 18.8517 16.8684C18.8517 19.5936 18.8517 22.3188 18.8517 25.044C18.8517 25.1569 18.8517 25.2685 18.8517 25.4001C17.4919 25.4001 16.158 25.4001 14.7806 25.4001Z" fill="#FEB330"/>
<path d="M10.8376 25.5049C9.4919 25.5049 8.15799 25.5049 6.79938 25.5049C6.7935 25.3897 6.78409 25.2886 6.78409 25.1876C6.78291 22.7891 6.78291 20.3906 6.78409 17.992C6.78409 17.1248 7.12991 16.4573 7.83686 16.0366C8.52381 15.6276 9.23076 15.6535 9.89772 16.0953C10.5012 16.4949 10.847 17.0966 10.8517 17.8604C10.8646 20.3424 10.8564 22.8243 10.8564 25.3063C10.8552 25.3662 10.8446 25.4261 10.8376 25.5049Z" fill="#FEB330"/>
<path d="M26.6477 25.4025C25.2973 25.4025 23.9693 25.4025 22.613 25.4025C22.6072 25.3132 22.5954 25.2251 22.5954 25.1358C22.5942 22.7361 22.5919 20.3352 22.5966 17.9355C22.5989 16.8967 23.2412 16.0435 24.1798 15.8049C25.0797 15.5758 26.0254 16.0294 26.4418 16.9319C26.5677 17.2046 26.6559 17.5277 26.6583 17.8286C26.6747 20.3011 26.6677 22.7749 26.6665 25.2486C26.6653 25.2885 26.6559 25.3297 26.6477 25.4025Z" fill="#FEB330"/>
<path d="M16.7094 6C18.3162 6.00118 19.609 7.29856 19.6054 8.90619C19.6019 10.5009 18.2786 11.8159 16.6894 11.8053C15.0873 11.7936 13.784 10.4809 13.791 8.88739C13.7981 7.28211 15.0944 5.99883 16.7094 6Z" fill="black"/>
<path d="M5.91802 11.0655C5.92743 9.46375 7.23076 8.18164 8.8458 8.18752C10.4338 8.1934 11.7489 9.52956 11.7312 11.1184C11.7136 12.719 10.3985 14.0046 8.79287 13.9928C7.18723 13.9811 5.90861 12.6802 5.91802 11.0655Z" fill="black"/>
<path d="M27.4812 11.0949C27.4824 12.7013 26.1873 13.994 24.5758 13.994C22.9748 13.994 21.6644 12.6849 21.668 11.089C21.6715 9.48959 22.9772 8.18985 24.5805 8.1875C26.1826 8.18633 27.48 9.48606 27.4812 11.0949Z" fill="black"/>
<path d="M29.3042 19.4497C29.1301 19.4497 28.9536 19.4109 28.7866 19.3286C23.6086 16.7879 17.9977 16.0064 12.1139 17.0077C7.68754 17.761 4.75858 19.2969 4.72918 19.3122C4.15633 19.6165 3.4435 19.4003 3.13884 18.828C2.833 18.2557 3.04944 17.5447 3.62112 17.2392C3.75051 17.1698 6.8512 15.5328 11.6281 14.7067C16.038 13.944 22.7746 13.7607 29.8241 17.2204C30.4075 17.5071 30.6475 18.211 30.3617 18.7928C30.157 19.2088 29.7382 19.4497 29.3042 19.4497Z" fill="black"/>
</svg>
