<svg width="41" height="42" viewBox="0 0 41 42" fill="none" xmlns="http://www.w3.org/2000/svg">
<path d="M0.777344 11.5809V34.4651L19.97 41.2451V17.231L0.777344 11.5809Z" fill="#744AE6"/>
<path d="M19.9688 17.231L39.6034 11.8635V34.4651L19.9688 41.2451V17.231Z" fill="#5333A8"/>
<path d="M0 11.4204L19.9711 17.2314V9.85763L0 4.43651V11.4204Z" fill="#744AE6"/>
<path d="M19.9688 9.85763C20.1863 9.79427 40.3317 4.79716 40.3317 4.79716V11.8639L19.9688 17.2314V9.85763Z" fill="#5333A8"/>
<path d="M0 4.43256L19.9711 0.310269L40.3341 4.79321L19.9711 9.85449L0 4.43256Z" fill="#B318C2"/>
<path d="M39.6034 12.0556L19.9688 17.2306V18.8584C19.9688 18.8584 32.0697 15.5987 35.4419 15.3607C38.8142 15.1228 39.6034 15.5898 39.6034 15.5898V12.0556Z" fill="#2F196C"/>
<path d="M0.777344 11.5804L19.97 17.2306V18.8584L0.777344 12.0556V11.5804Z" fill="#2F196C"/>
<path d="M9.98552 7.14551L31.6021 2.87295L27.4653 1.96239L6.65625 6.24146L9.98552 7.14551Z" fill="#62CEF9"/>
<path d="M29.0153 7.61035L10.375 2.29565L13.7829 1.59222L32.5755 6.62263L29.0153 7.61035Z" fill="#62CEF9"/>
<path d="M4.03908 16.4955C4.03908 17.8 3.57559 18.8584 3.00391 18.8584C2.43215 18.8584 1.96875 17.8 1.96875 16.4955C1.96875 15.1902 2.43215 14.1318 3.00391 14.1318C3.57559 14.1318 4.03908 15.1902 4.03908 16.4955Z" fill="#B074EF"/>
<path d="M8.59384 17.5834C8.59384 18.8887 8.13036 19.9463 7.5586 19.9463C6.98692 19.9463 6.52344 18.8887 6.52344 17.5834C6.52344 16.2781 6.98692 15.2205 7.5586 15.2205C8.13036 15.2205 8.59384 16.2781 8.59384 17.5834Z" fill="#B074EF"/>
<path d="M8.9533 27.6713C8.9533 28.9758 8.48982 30.0342 7.91806 30.0342C7.3463 30.0342 6.88281 28.9758 6.88281 27.6713C6.88281 26.3659 7.3463 25.3084 7.91806 25.3084C8.48982 25.3084 8.9533 26.3659 8.9533 27.6713Z" fill="#B074EF"/>
<path d="M11.9923 35.2767C11.9923 36.5821 11.5288 37.6396 10.9571 37.6396C10.3854 37.6396 9.92188 36.5821 9.92188 35.2767C9.92188 33.9714 10.3854 32.9138 10.9571 32.9138C11.5288 32.9138 11.9923 33.9714 11.9923 35.2767Z" fill="#B074EF"/>
<path d="M12.0549 23.6635C12.0549 24.9688 11.5914 26.0264 11.0196 26.0264C10.4479 26.0264 9.98438 24.9688 9.98438 23.6635C9.98438 22.3581 10.4479 21.3006 11.0196 21.3006C11.5914 21.3006 12.0549 22.3581 12.0549 23.6635Z" fill="#B074EF"/>
<path d="M15.1895 19.4584C15.1895 20.7637 14.6137 21.8213 13.9033 21.8213C13.193 21.8213 12.6172 20.7637 12.6172 19.4584C12.6172 18.1539 13.193 17.0955 13.9033 17.0955C14.6137 17.0955 15.1895 18.1539 15.1895 19.4584Z" fill="#B074EF"/>
<path d="M15.904 29.3158C15.904 30.6211 15.2591 31.6787 14.4638 31.6787C13.6683 31.6787 13.0234 30.6211 13.0234 29.3158C13.0234 28.0113 13.6683 26.9529 14.4638 26.9529C15.2591 26.9529 15.904 28.0113 15.904 29.3158Z" fill="#B074EF"/>
<path d="M18.0681 37.0326C18.0681 38.3379 17.4232 39.3955 16.6277 39.3955C15.8324 39.3955 15.1875 38.3379 15.1875 37.0326C15.1875 35.7273 15.8324 34.6697 16.6277 34.6697C17.4232 34.6697 18.0681 35.7273 18.0681 37.0326Z" fill="#B074EF"/>
<path d="M18.6158 24.0678C18.6158 25.3723 18.0302 26.4307 17.3078 26.4307C16.5856 26.4307 16 25.3723 16 24.0678C16 22.7624 16.5856 21.7048 17.3078 21.7048C18.0302 21.7048 18.6158 22.7624 18.6158 24.0678Z" fill="#B074EF"/>
<path d="M24.0923 19.9467C24.0923 21.252 23.5068 22.3096 22.7844 22.3096C22.0621 22.3096 21.4766 21.252 21.4766 19.9467C21.4766 18.6413 22.0621 17.5838 22.7844 17.5838C23.5068 17.5838 24.0923 18.6413 24.0923 19.9467Z" fill="#893ADB"/>
<path d="M24.0923 30.0326C24.0923 31.3371 23.5068 32.3955 22.7844 32.3955C22.0621 32.3955 21.4766 31.3371 21.4766 30.0326C21.4766 28.7273 22.0621 27.6697 22.7844 27.6697C23.5068 27.6697 24.0923 28.7273 24.0923 30.0326Z" fill="#893ADB"/>
<path d="M27.8915 35.3628C27.8915 36.8525 27.2233 38.0596 26.3989 38.0596C25.5745 38.0596 24.9062 36.8525 24.9062 35.3628C24.9062 33.8739 25.5745 32.6661 26.3989 32.6661C27.2233 32.6661 27.8915 33.8739 27.8915 35.3628Z" fill="#893ADB"/>
<path d="M28.4478 24.4057C28.4478 25.7102 27.8623 26.7686 27.14 26.7686C26.4176 26.7686 25.832 25.7102 25.832 24.4057C25.832 23.1003 26.4176 22.0427 27.14 22.0427C27.8623 22.0427 28.4478 23.1003 28.4478 24.4057Z" fill="#893ADB"/>
<path d="M32.6705 17.8197C32.6705 19.125 32.0849 20.1826 31.3625 20.1826C30.6403 20.1826 30.0547 19.125 30.0547 17.8197C30.0547 16.5152 30.6403 15.4568 31.3625 15.4568C32.0849 15.4568 32.6705 16.5152 32.6705 17.8197Z" fill="#893ADB"/>
<path d="M33.7095 34.0424C33.7095 35.3477 33.1239 36.4053 32.4017 36.4053C31.6793 36.4053 31.0938 35.3477 31.0938 34.0424C31.0938 32.7379 31.6793 31.6795 32.4017 31.6795C33.1239 31.6795 33.7095 32.7379 33.7095 34.0424Z" fill="#893ADB"/>
<path d="M35.5064 26.4115C35.5064 27.7168 34.9208 28.7744 34.1985 28.7744C33.4762 28.7744 32.8906 27.7168 32.8906 26.4115C32.8906 25.107 33.4762 24.0486 34.1985 24.0486C34.9208 24.0486 35.5064 25.107 35.5064 26.4115Z" fill="#893ADB"/>
<path d="M36.6137 17.5834C36.6137 18.8887 36.1178 19.9463 35.5061 19.9463C34.8943 19.9463 34.3984 18.8887 34.3984 17.5834C34.3984 16.2781 34.8943 15.2205 35.5061 15.2205C36.1178 15.2205 36.6137 16.2781 36.6137 17.5834Z" fill="#893ADB"/>
<path d="M38.016 32.06C38.016 33.3645 37.5201 34.4229 36.9084 34.4229C36.2967 34.4229 35.8008 33.3645 35.8008 32.06C35.8008 30.7546 36.2967 29.6962 36.9084 29.6962C37.5201 29.6962 38.016 30.7546 38.016 32.06Z" fill="#893ADB"/>
<path d="M39.1215 23.6635C39.1215 24.9688 38.6256 26.0264 38.0139 26.0264C37.4021 26.0264 36.9062 24.9688 36.9062 23.6635C36.9062 22.3581 37.4021 21.3006 38.0139 21.3006C38.6256 21.3006 39.1215 22.3581 39.1215 23.6635Z" fill="#893ADB"/>
<path d="M6.10955 22.1517C6.10955 23.4571 5.64607 24.5146 5.07431 24.5146C4.50255 24.5146 4.03906 23.4571 4.03906 22.1517C4.03906 20.8472 4.50255 19.7888 5.07431 19.7888C5.64607 19.7888 6.10955 20.8472 6.10955 22.1517Z" fill="#B074EF"/>
<path d="M3.54697 27.8471C3.54697 29.1524 3.08349 30.21 2.51181 30.21C1.94005 30.21 1.47656 29.1524 1.47656 27.8471C1.47656 26.5425 1.94005 25.4842 2.51181 25.4842C3.08349 25.4842 3.54697 26.5425 3.54697 27.8471Z" fill="#B074EF"/>
<path d="M6.10955 33.1146C6.10955 34.42 5.64607 35.4775 5.07431 35.4775C4.50255 35.4775 4.03906 34.42 4.03906 33.1146C4.03906 31.8101 4.50255 30.7517 5.07431 30.7517C5.64607 30.7517 6.10955 31.8101 6.10955 33.1146Z" fill="#B074EF"/>
<path d="M6.65691 6.24117L6.23047 36.3887L10.9595 38.0596L9.98618 7.14522L6.65691 6.24117Z" fill="#5BBDEF"/>
<path d="M29.0156 7.60821L29.1914 38.0596L33.7118 36.4984L32.5757 6.62049L29.0156 7.60821Z" fill="#4DA6C1"/>
<path d="M14.875 7.89628C15.3122 7.53238 15.7557 7.16442 16.2704 6.92155C16.2491 7.46903 16.278 8.01892 16.3568 8.56152C16.9759 7.42921 18.1859 6.77127 19.1001 5.86071C19.2315 5.72994 19.3644 5.57643 19.3743 5.39123C19.384 5.21009 19.2665 5.0387 19.1128 4.94122C18.9591 4.84375 18.7744 4.80801 18.5933 4.79014C17.8756 4.71866 17.0835 4.89899 16.4916 5.32137C16.2801 5.47246 16.1525 5.69421 15.9815 5.8859C15.7379 6.15883 15.516 6.44149 15.3342 6.76072C15.1311 7.11649 14.9754 7.49908 14.875 7.89628Z" fill="#62CEF9"/>
<path d="M20.6721 7.00313C20.4827 7.60989 20.1338 8.15331 19.7773 8.67966C20.0661 8.59844 20.3422 8.47822 20.6174 8.35801C21.081 8.15656 21.5448 7.95431 22.0084 7.75286C22.0438 8.17443 22.0061 8.60331 21.8978 9.0127C22.6711 8.36206 23.296 7.53516 23.7118 6.61404C23.7824 6.45809 23.8481 6.29401 23.8512 6.12262C23.8541 5.96179 23.8018 5.80503 23.7305 5.66125C23.5192 5.23481 23.1375 4.90258 22.6993 4.71657C22.2613 4.53056 21.7703 4.48426 21.2983 4.546C21.0982 4.57199 20.8727 4.62965 20.7239 4.77505C20.5158 4.97893 20.5925 5.13896 20.6791 5.37371C20.8716 5.89519 20.8356 6.48002 20.6721 7.00313Z" fill="#62CEF9"/>
<path d="M12.554 6.39635C12.8303 6.44184 13.5677 6.45241 13.8386 6.38174C15.5308 5.94149 16.7302 5.81071 18.5534 5.45088C18.8341 5.39564 19.1239 5.38913 19.3992 5.31197C19.5168 5.27866 19.6523 5.21207 19.6613 5.09022C19.6659 5.0293 19.6353 4.97163 19.5972 4.92371C19.4662 4.76125 19.2516 4.69546 19.0484 4.64834C17.8695 4.37217 16.6426 4.42659 15.4328 4.37785C14.7881 4.35186 14.1383 4.29582 13.5007 4.39573C12.8995 4.48914 12.2675 4.745 11.8734 5.22912C11.5165 5.66694 12.0887 6.32 12.554 6.39635Z" fill="#4B9EBF"/>
<path d="M20.0054 3.60614C19.6274 3.02211 19.023 2.62654 18.4233 2.2732C17.434 1.68998 16.4069 1.17175 15.3504 0.721753C14.7375 0.461012 14.0872 0.218946 13.4237 0.277429C12.9603 0.318855 12.468 0.556036 12.319 0.997101C12.1524 1.48853 12.4702 2.01082 12.8286 2.38609C13.9522 3.5647 15.5774 4.15199 17.1917 4.3648C17.8889 4.45659 18.5944 4.48582 19.2969 4.45252C19.3413 4.45089 19.3945 4.4509 19.4522 4.45171C19.6625 4.45333 19.9337 4.45414 20.0657 4.33555C20.2765 4.14466 20.1294 3.79864 20.0054 3.60614Z" fill="#457FDD"/>
<path d="M17.0616 3.26671C15.0233 2.72898 11.9581 1.61535 12.5775 0.614631C11.5459 1.40254 10.8617 2.74198 10.9727 4.03431C11.0188 4.57203 11.2023 5.13413 11.6327 5.45904C11.8241 5.60362 12.0522 5.69135 12.2832 5.75552C13.0785 5.97483 13.9216 5.92366 14.742 5.83594C16.5403 5.64505 18.3167 5.29091 20.0901 4.93676C20.1261 4.72556 20.4441 4.0465 20.2049 4.04732C19.8854 4.04813 19.579 3.96853 19.3559 3.91329C18.6552 3.73784 17.7593 3.45109 17.0616 3.26671Z" fill="#5BBDEF"/>
<path d="M20.3828 5.14503C20.4799 5.20758 23.061 5.9102 23.061 5.9102C23.061 5.9102 24.1251 6.1685 25.521 6.04991C26.9168 5.93213 28.6977 5.58204 28.6977 5.58204C28.6977 5.58204 27.4083 5.13854 27.3494 5.0833C27.2904 5.02807 20.4107 4.43348 20.4107 4.43348L20.3828 5.14503Z" fill="#4B9EBF"/>
<path d="M19.9126 3.82498C20.2445 3.21252 20.8167 2.77228 21.3875 2.37345C22.329 1.71632 23.3133 1.12092 24.3321 0.591317C24.923 0.284277 25.553 -0.00733519 26.2189 -2.47955e-05C26.6841 0.00566101 27.1932 0.204675 27.3758 0.631931C27.5796 1.10955 27.3029 1.65459 26.9744 2.05666C25.9446 3.31813 24.3693 4.02805 22.7762 4.36433C22.0881 4.50973 21.387 4.59338 20.6839 4.6145C20.4778 4.62019 20.088 4.69492 19.9084 4.55602C19.6836 4.3822 19.8036 4.02561 19.9126 3.82498Z" fill="#457FDD"/>
<path d="M22.8841 3.25634C24.875 2.56347 27.7512 1.19561 27.0567 0.245247C28.1458 0.951114 29.0252 2.25562 29.014 3.55363C29.0093 4.09298 28.8696 4.66727 28.4654 5.02467C28.2857 5.18307 28.065 5.28866 27.8395 5.36989C27.0635 5.65012 26.2189 5.66311 25.3942 5.63956C23.5865 5.58676 21.7882 5.36988 19.9927 5.15381C19.9406 4.94587 19.5714 4.2928 19.81 4.27575C20.1285 4.25138 20.4279 4.14903 20.6462 4.07593C21.3313 3.84768 22.2027 3.49271 22.8841 3.25634Z" fill="#5BBDEF"/>
<path d="M19.9912 3.15225C19.8272 3.11813 19.657 3.15711 19.4977 3.20828C19.2865 3.27733 19.0703 3.3813 18.9575 3.573C18.8677 3.7257 18.8575 3.91172 18.8558 4.08879C18.8544 4.24556 18.8578 4.40233 18.8661 4.5591C18.8725 4.68094 18.8831 4.80766 18.9395 4.91569C19.0674 5.16181 19.3793 5.23816 19.6551 5.2674C20.0322 5.30801 20.4133 5.31045 20.7909 5.27471C20.9516 5.25928 21.1222 5.2333 21.243 5.12608C21.3883 4.99692 21.4237 4.78492 21.4312 4.59078C21.4481 4.15865 21.3705 3.72328 21.2058 3.32283C21.1776 3.2546 21.1461 3.18554 21.097 3.13031C20.9948 3.01415 20.833 2.97273 20.6795 2.95567C20.3121 2.91587 19.9332 2.98897 19.6069 3.1628L19.9912 3.15225Z" fill="#5BBDEF"/>
<path d="M21.2474 3.34031C21.2192 3.27208 21.1877 3.20304 21.1387 3.1478C21.0625 3.06089 20.953 3.01622 20.8386 2.99185C20.9654 3.35169 21.024 3.73507 21.0092 4.11603C21.0016 4.31016 20.9662 4.52136 20.8209 4.65051C20.7001 4.75773 20.5296 4.78454 20.3689 4.79997C19.9913 4.83571 19.6101 4.83327 19.2331 4.79266C19.1305 4.78129 19.023 4.76424 18.9219 4.73418C18.9319 4.80322 18.9489 4.87146 18.9812 4.93319C19.1091 5.17931 19.4209 5.25565 19.6968 5.2857C20.0738 5.3255 20.455 5.32795 20.8326 5.29221C20.9933 5.27759 21.1639 5.25078 21.2846 5.14356C21.4299 5.0144 21.4653 4.80241 21.4729 4.60828C21.4897 4.17615 21.4122 3.73995 21.2474 3.34031Z" fill="#4B9EBF"/>
<path d="M19.4329 4.31934C19.3953 4.31934 19.3566 4.30797 19.3239 4.28848C19.1668 4.19669 19.1327 3.97981 19.1702 3.80192C19.2376 3.48189 19.5129 3.27314 19.8367 3.27314C19.8371 3.27314 19.8375 3.27314 19.838 3.27314C19.9518 3.27314 20.2195 3.28938 20.2965 3.37548C20.4106 3.50219 20.3225 3.64515 20.1663 3.67764C20.0695 3.69795 19.9673 3.68496 19.8719 3.71096C19.7418 3.74588 19.6361 3.8596 19.6097 3.992C19.5879 4.10084 19.6049 4.23974 19.5104 4.29822C19.487 4.31365 19.4602 4.31934 19.4329 4.31934Z" fill="#96D5F5"/>
<path d="M11.3604 4.5791C11.2998 4.5791 11.2414 4.493 11.2255 4.42071C11.0839 3.78064 11.3271 3.12513 11.5663 2.51512C11.7047 2.16178 11.8557 1.8125 12.0118 1.46728C12.049 1.38524 12.0887 1.22279 12.2026 1.20735C12.2129 1.20573 12.2225 1.20574 12.2316 1.20574C12.4066 1.20574 12.3613 1.45347 12.3703 1.56882C12.3857 1.7662 12.555 1.91242 12.7168 2.02532C13.1234 2.31124 13.5684 2.54111 14.036 2.70844C14.2904 2.79942 14.5553 2.87333 14.7801 3.02279C14.8478 3.06827 14.9166 3.13 14.9217 3.21042C14.9266 3.29327 14.8595 3.36639 14.7818 3.39482C14.7427 3.40862 14.7016 3.41349 14.6599 3.41349C14.6188 3.41349 14.5772 3.40862 14.5366 3.40294C13.9734 3.32009 13.4551 3.05285 12.905 2.90664C12.8608 2.89527 12.8129 2.8847 12.7672 2.8847C12.7243 2.8847 12.6834 2.89364 12.6489 2.91963C12.5532 2.9903 12.5743 3.14706 12.6515 3.23885C12.7286 3.32982 12.8427 3.37938 12.9392 3.44923C13.0356 3.5199 13.121 3.63281 13.095 3.74896C13.0628 3.89355 12.8895 3.94635 12.7384 3.94635C12.7282 3.94635 12.7182 3.94634 12.7084 3.94553C12.5395 3.93822 12.3722 3.89842 12.2175 3.83019C12.0944 3.77658 11.9619 3.70267 11.834 3.70267C11.7956 3.70267 11.7576 3.70916 11.7205 3.7254C11.5871 3.78145 11.5248 3.93659 11.5048 4.07955C11.4848 4.22333 11.4926 4.37279 11.4393 4.50763C11.4307 4.52956 11.4199 4.55068 11.4012 4.56449C11.3878 4.57505 11.3741 4.5791 11.3604 4.5791Z" fill="#96D5F5"/>
<path d="M23.6847 3.61621C23.58 3.61621 23.4556 3.5829 23.4532 3.48299C23.4509 3.38958 23.5634 3.34085 23.6559 3.33191C24.2398 3.27343 24.86 2.94364 25.3655 2.6626C25.936 2.34581 26.4656 1.9551 26.9351 1.50185C27.0265 1.41332 27.1182 1.32073 27.2332 1.26712C27.2895 1.24031 27.353 1.22487 27.4151 1.22487C27.4803 1.22487 27.5439 1.24193 27.5958 1.28092C27.6991 1.35971 27.7286 1.49862 27.7894 1.61315C27.8647 1.75529 27.991 1.86251 28.1014 1.97948C28.3634 2.25728 28.544 2.61143 28.6152 2.9867C28.6262 3.04437 28.632 3.11097 28.5917 3.15402C28.5714 3.17514 28.5452 3.18409 28.5174 3.18409C28.4641 3.18409 28.4046 3.15078 28.3682 3.10773C28.2518 2.96883 28.2046 2.72677 28.024 2.71784C28.0208 2.71784 28.0177 2.71784 28.0146 2.71784C27.9 2.71784 27.8147 2.82344 27.7272 2.89979C27.6758 2.94528 27.6 2.97777 27.5339 2.97777C27.4847 2.97777 27.4409 2.95908 27.4167 2.9144C27.3985 2.88029 27.3983 2.83967 27.405 2.80149C27.4258 2.68534 27.5062 2.58868 27.5405 2.47577C27.5749 2.36287 27.5307 2.20529 27.4132 2.19392C27.409 2.19392 27.4049 2.19392 27.4007 2.19392C27.3565 2.19392 27.3141 2.21422 27.275 2.23615C27.0855 2.34012 26.9123 2.47172 26.733 2.59275C25.8416 3.19464 24.7866 3.55204 23.7127 3.6154C23.7036 3.61621 23.6942 3.61621 23.6847 3.61621Z" fill="#96D5F5"/>
</svg>
