<svg id="Layer_1" data-name="Layer 1" xmlns="http://www.w3.org/2000/svg" viewBox="0 0 56 32"><defs><style>.cls-1{fill:#feb330;}.cls-2{fill:#1e1b1c;}</style></defs><path class="cls-1" d="M41.7,14.18l-3.5-3.47c-.07.12-7.47,7.58-11.1,11.21-.54.54-.83.54-1.37,0l-3-3-.27-.26a2.6,2.6,0,0,1-.22.3c-1.91,1.93-3.83,3.84-5.75,5.76a2.78,2.78,0,0,1-2,.92A2.7,2.7,0,0,1,11.9,24a2.57,2.57,0,0,1,.3-2.83,6,6,0,0,1,.48-.53l9.12-9.13c.53-.53.84-.53,1.36,0l3,3,.23.21,7.91-7.91-.19-.2c-1-1-3.25-3.4-3.35-3.58C31,3,44.39,1.35,44.39,1.35S41.86,14.32,41.7,14.18Z"/><path class="cls-2" d="M38.23,30.63H35.59v-.32q0-6.6,0-13.18a2,2,0,0,1,.63-1.52l1.4-1.39a2.09,2.09,0,0,1,.22-.2c.22-.16.35-.1.38.16a1.83,1.83,0,0,1,0,.33V30.63Z"/><path class="cls-2" d="M34.25,30.64H31.42v-.33q0-4.5,0-9A2,2,0,0,1,32,19.78c.54-.52,1.07-1.06,1.61-1.6a2,2,0,0,1,.27-.23c.15-.1.27-.07.31.12a1.87,1.87,0,0,1,0,.32v12C34.27,30.47,34.26,30.54,34.25,30.64Z"/><path class="cls-2" d="M30.08,30.63H27.26c0-.11,0-.2,0-.3,0-1.63,0-3.26,0-4.88A1.87,1.87,0,0,1,27.85,24c.57-.5,1.08-1.06,1.61-1.59l.25-.22c.2-.14.32-.09.37.16a1.94,1.94,0,0,1,0,.24v7.86A2,2,0,0,1,30.08,30.63Z"/><path class="cls-2" d="M25.91,30.63H23.08V30.3c0-2.43,0-4.87,0-7.3a2.44,2.44,0,0,1,.16-.57,2.59,2.59,0,0,1,.48.3c.56.54,1.1,1.09,1.65,1.64a1.73,1.73,0,0,1,.55,1.28c0,1.6,0,3.21,0,4.82A1,1,0,0,1,25.91,30.63Z"/><path class="cls-2" d="M21.74,30.65H19.15c-.18,0-.24,0-.24-.24,0-1.53,0-3.06,0-4.58a1.89,1.89,0,0,1,.57-1.34l1.71-1.7a.93.93,0,0,1,.18-.16c.21-.14.33-.09.37.15a1,1,0,0,1,0,.24v7.36C21.76,30.46,21.75,30.53,21.74,30.65Z"/><path class="cls-2" d="M17.57,30.63H14.44a1.72,1.72,0,0,1,.48-1.57c.71-.72,1.42-1.43,2.15-2.14a1,1,0,0,1,.38-.18,1.49,1.49,0,0,1,.13.39c0,1.11,0,2.23,0,3.34C17.59,30.52,17.57,30.57,17.57,30.63Z"/></svg>