<svg width="33" height="32" viewBox="0 0 33 32" fill="none" xmlns="http://www.w3.org/2000/svg">
<path d="M27.5216 23.4797H6.47844C5.65708 23.4797 5 22.7597 5 21.8596V7.62016C5 6.72007 5.65708 6 6.47844 6H27.5216C28.3429 6 29 6.72007 29 7.62016V21.8596C29 22.7597 28.3429 23.4797 27.5216 23.4797Z" fill="#FFB412"/>
<path d="M23.4111 20.6896C23.4645 20.6716 23.5179 20.6356 23.5713 20.6176V25.9821L20.7417 23.2819L17.9121 26.0001V20.5996C17.9833 20.6356 18.0367 20.6536 18.1079 20.6896C18.9443 21.0497 19.8341 21.2297 20.7595 21.2297C21.6849 21.2297 22.5747 21.0497 23.4111 20.6896Z" fill="black"/>
<circle cx="21" cy="14" r="4" fill="white"/>
<path d="M20.8838 8.19727C20.8482 8.19727 20.7948 8.19727 20.7592 8.19727C17.3958 8.19727 14.673 10.9515 14.6374 14.3179C14.6018 16.7301 15.9365 18.8363 17.9119 19.8804C18.7661 20.3305 19.7271 20.5825 20.7592 20.5825C21.7736 20.5825 22.7346 20.3305 23.571 19.8984C25.5464 18.8723 26.8989 16.7661 26.8989 14.3899C26.8989 10.9875 24.1761 8.25127 20.8838 8.19727ZM18.2144 11.8156H23.3041V13.3638H19.7449V16.9821H18.2144V11.8156ZM21.1152 16.4421V14.7319H22.8058V16.4421H21.1152Z" fill="black"/>
<path d="M12.8061 9.67188H8.15039V10.932H12.8061V9.67188Z" fill="white"/>
</svg>
