<svg width="31" height="32" viewBox="0 0 31 32" fill="none" xmlns="http://www.w3.org/2000/svg">
<path d="M14.9444 1.0778C15.3001 0.930441 15.6999 0.930441 16.0556 1.0778L25.9045 5.15736C26.2603 5.30472 26.5429 5.58736 26.6903 5.94312L30.7699 15.792C30.9172 16.1478 30.9172 16.5475 30.7699 16.9033L26.6903 26.7522C26.5429 27.108 26.2603 27.3906 25.9045 27.538L16.0556 31.6175C15.6999 31.7649 15.3001 31.7649 14.9444 31.6175L5.09546 27.538C4.73971 27.3906 4.45706 27.108 4.3097 26.7522L0.230143 16.9033C0.0827849 16.5475 0.0827851 16.1478 0.230144 15.792L4.3097 5.94312C4.45706 5.58736 4.73971 5.30472 5.09546 5.15736L14.9444 1.0778Z" fill="#4E218F"/>
<path d="M11.8916 15.6338C13.8966 15.6338 15.3701 14.2152 15.3701 12.4169C15.3701 10.5788 13.8724 9.16016 11.8191 9.16016C9.81411 9.16016 8.31641 10.4589 8.31641 12.397C8.31641 14.3351 9.83826 15.6338 11.8916 15.6338ZM9.57254 23.3062H11.8674L22.2064 9.37994H19.9115L9.57254 23.3062ZM11.8916 13.8156C11.0702 13.8156 10.5146 13.336 10.5146 12.397C10.5146 11.4579 11.0461 10.9784 11.8191 10.9784C12.5921 10.9784 13.1719 11.5178 13.1719 12.4169C13.1719 13.2361 12.6163 13.8156 11.8916 13.8156ZM19.9357 23.526C21.9407 23.526 23.4384 22.0874 23.4384 20.2692C23.4384 18.451 21.9165 17.0324 19.8632 17.0324C17.8582 17.0324 16.3847 18.3311 16.3847 20.2492C16.3847 22.2273 17.8824 23.526 19.9357 23.526ZM19.9357 21.6878C19.1627 21.6878 18.5829 21.2283 18.5829 20.2492C18.5829 19.3301 19.1143 18.8506 19.8632 18.8506C20.6604 18.8506 21.2401 19.3901 21.2401 20.2692C21.2401 21.1084 20.6845 21.6878 19.9357 21.6878Z" fill="white"/>
</svg>
