<svg width="15" height="15" viewBox="0 0 15 15" fill="none" xmlns="http://www.w3.org/2000/svg">
<path d="M7.95542 7.16067V4.49707H6.17969V8.04854C6.17969 8.28438 6.27333 8.50981 6.43981 8.67628C6.60629 8.84276 6.83171 8.93641 7.06755 8.93641H10.1751V7.16067H7.95542Z" fill="#00973C"/>
<path d="M7.5114 0.723633C5.19539 0.725367 3.03655 1.89155 1.76445 3.82673C0.49334 5.76201 0.280918 8.20613 1.19826 10.3323C0.343335 11.5272 0.521951 13.1737 1.61358 14.1562C2.70522 15.1394 4.36131 15.1455 5.46071 14.17C7.37604 14.7709 9.45789 14.5056 11.1617 13.4426C12.8646 12.3804 14.0186 10.6263 14.3212 8.64256C14.6238 6.65787 14.0446 4.64028 12.7362 3.11759C11.427 1.5959 9.51857 0.721014 7.51133 0.723677L7.5114 0.723633ZM3.51599 13.1538C3.06687 13.1538 2.6628 12.8832 2.49026 12.4688C2.31859 12.0543 2.41396 11.5766 2.7313 11.2593C3.04864 10.9419 3.52638 10.8465 3.94084 11.0182C4.3553 11.1908 4.62581 11.5948 4.62581 12.044C4.62581 12.3379 4.50875 12.6206 4.30067 12.8287C4.09258 13.0367 3.80992 13.1538 3.51597 13.1538L3.51599 13.1538ZM7.5114 12.7098C7.12036 12.7098 6.73105 12.6639 6.3504 12.5746C6.53421 11.5861 6.19086 10.5734 5.44433 9.90143C4.69692 9.2286 3.65386 8.99363 2.69061 9.28061C2.21374 7.90806 2.34379 6.39771 3.04871 5.1265C3.7545 3.85625 4.9675 2.94672 6.3842 2.62583C7.80097 2.30415 9.28797 2.60241 10.4715 3.44433C11.6559 4.28625 12.425 5.5929 12.5862 7.03752C12.7475 8.48117 12.2862 9.92575 11.3177 11.0087C10.3484 12.0917 8.96446 12.7099 7.51146 12.7099L7.5114 12.7098Z" fill="#00973C"/>
</svg>
