<svg width="24" height="22" viewBox="0 0 24 22" fill="none" xmlns="http://www.w3.org/2000/svg">
<path d="M8.73426 19.741C4.85236 19.741 1.71699 16.5624 1.71699 12.683C1.71699 8.77851 4.87725 5.62492 8.73426 5.62492C9.80427 5.62492 10.8245 5.8752 11.7452 6.30069L13.0143 5.02423C11.7452 4.29841 10.3019 3.89795 8.73426 3.89795C3.90678 3.89795 0 7.85245 0 12.683C0 17.5385 3.90678 21.468 8.73426 21.468C13.512 21.468 17.4187 17.5885 17.4685 12.7831L15.7266 13.2586C15.4529 16.8877 12.4171 19.741 8.73426 19.741Z" fill="#1978F2"/>
<path d="M8.73474 8.92961C8.85916 8.92961 8.98358 8.9296 9.108 8.95463L10.5264 7.52801C9.97893 7.32778 9.38172 7.20264 8.73474 7.20264C5.72378 7.20264 3.28516 9.65543 3.28516 12.6839C3.28516 15.7123 5.72378 18.1651 8.73474 18.1651C11.3973 18.1651 13.612 16.2379 14.0848 13.7101L12.1438 14.2357C11.5715 15.5371 10.2527 16.4382 8.75962 16.4382C6.69425 16.4382 5.02703 14.7613 5.02703 12.6839C5.00215 10.6065 6.66937 8.92961 8.73474 8.92961Z" fill="#1978F2"/>
<path d="M23.3157 10.0052L21.8476 9.15422L22.6937 7.67754C22.8181 7.45228 22.7932 7.17697 22.6439 6.95171C22.4946 6.75149 22.2209 6.65137 21.972 6.72646L19.5583 7.3772C19.3841 7.42726 19.2597 7.52737 19.1601 7.67754L18.2892 9.20428L11.5954 11.0063L16.4976 6.07572H18.2892C18.4634 6.07572 18.6127 6.00063 18.7371 5.87549L20.5039 4.09847C20.6781 3.92327 20.7527 3.64795 20.6532 3.39767C20.5536 3.14738 20.3297 2.99721 20.056 2.99721H18.3638V1.29527C18.3638 1.04499 18.2145 0.794702 17.9657 0.694588C17.7169 0.594474 17.4431 0.644531 17.269 0.844759L15.5022 2.62178C15.3778 2.74693 15.3031 2.8971 15.3031 3.0723V4.84932L9.53005 10.681C9.28121 10.5808 9.03237 10.5308 8.73377 10.5308C7.53934 10.5308 6.59375 11.5069 6.59375 12.6832C6.59375 13.8596 7.56422 14.8357 8.73377 14.8357C9.80378 14.8357 10.6996 14.0348 10.8489 12.9836L18.7371 10.8562L20.2799 11.7572C20.4292 11.8323 20.6034 11.8573 20.7776 11.8323L23.1913 11.1815C23.4402 11.1064 23.6392 10.9062 23.6641 10.6309C23.6641 10.3806 23.5397 10.1303 23.3157 10.0052Z" fill="#1978F2"/>
</svg>
