<svg width="21" height="17" viewBox="0 0 21 17" fill="none" xmlns="http://www.w3.org/2000/svg">
<path d="M14.8875 10.204C14.8103 10.0811 14.7268 9.96472 14.6368 9.84834C14.5082 9.66729 14.3539 9.49271 14.1482 9.2858C13.9618 9.09829 13.7689 8.93017 13.5632 8.78146C12.6246 8.05727 11.4803 7.67578 10.2846 7.67578C9.07603 7.67578 7.93175 8.0702 6.9996 8.78146C6.61389 9.07242 6.26674 9.42158 5.9646 9.816C5.86817 9.93886 5.77817 10.0682 5.68817 10.204C5.12888 11.0769 4.82031 12.1179 4.82031 13.1718V13.4951V15.4349V15.7582C4.82031 16.2949 5.25103 16.7281 5.7846 16.7281H14.7846C15.3182 16.7281 15.7489 16.2949 15.7489 15.7582V15.4349V13.1718C15.7489 12.1049 15.4403 11.0639 14.8875 10.204Z" fill="#FEB330"/>
<path d="M13.1803 3.79642C13.1803 5.39998 11.8817 6.70612 10.2874 6.70612C8.6931 6.70612 7.39453 5.39998 7.39453 3.79642C7.39453 2.18638 8.6931 0.886719 10.2874 0.886719C11.8817 0.886719 13.1803 2.18638 13.1803 3.79642Z" fill="#FEB330"/>
<path d="M19.2857 3.79642C19.2857 5.39998 17.9871 6.70612 16.3929 6.70612C14.7986 6.70612 13.5 5.39998 13.5 3.79642C13.5 2.18638 14.7986 0.886719 16.3929 0.886719C17.9871 0.886719 19.2857 2.18638 19.2857 3.79642Z" fill="#FEB330"/>
<path d="M20.571 11.8786V14.465C20.571 15.0017 20.1403 15.4349 19.6067 15.4349H16.7139V13.1718C16.7139 11.9368 16.3539 10.6954 15.7046 9.68668C15.6081 9.53796 15.5053 9.39571 15.4217 9.28579C15.2674 9.06595 15.0874 8.85904 14.8303 8.60041C14.6824 8.45169 14.5346 8.31591 14.3867 8.19305C14.991 7.85683 15.6789 7.67578 16.3924 7.67578C17.5046 7.67578 18.5524 8.109 19.3432 8.89784C20.1403 9.70608 20.571 10.76 20.571 11.8786Z" fill="#FEB330"/>
<path d="M6.19072 8.19305C5.83072 8.49049 5.49644 8.83964 5.20715 9.21467C5.09787 9.35692 4.98858 9.50563 4.87929 9.68021C4.21072 10.7212 3.85715 11.9304 3.85715 13.1718V15.4349H0.964287C0.430715 15.4349 0 15.0017 0 14.465V11.8786C0 9.56383 1.87715 7.67578 4.17858 7.67578C4.89215 7.67578 5.58001 7.85683 6.19072 8.19305Z" fill="#FEB330"/>
<path d="M7.07088 3.79642C7.07088 5.39998 5.77231 6.70612 4.17802 6.70612C2.58373 6.70612 1.28516 5.39998 1.28516 3.79642C1.28516 2.18638 2.58373 0.886719 4.17802 0.886719C5.77231 0.886719 7.07088 2.18638 7.07088 3.79642Z" fill="#FEB330"/>
</svg>
