<svg width="34" height="37" viewBox="0 0 34 37" fill="none" xmlns="http://www.w3.org/2000/svg">
<path d="M8.38183 8.50894H7.71167C5.6174 8.50894 3.91406 6.87147 3.91406 4.83813V4.19034C3.91406 2.166 5.60809 0.519531 7.71167 0.519531H8.38183C10.4761 0.519531 12.1794 2.157 12.1794 4.19034V4.83813C12.1701 6.87147 10.4761 8.50894 8.38183 8.50894Z" fill="white"/>
<path d="M15.4262 17.0089H0.664062V13.446C0.664062 11.7726 2.06954 10.4141 3.80079 10.4141H12.2988C14.0301 10.4141 15.4355 11.7726 15.4355 13.446V17.0089H15.4262Z" fill="#2CC161"/>
<path d="M26.8077 8.50894H26.1375C24.0432 8.50894 22.3398 6.87147 22.3398 4.83813V4.19034C22.3398 2.166 24.0339 0.519531 26.1375 0.519531H26.8077C28.902 0.519531 30.6053 2.157 30.6053 4.19034V4.83813C30.596 6.87147 28.902 8.50894 26.8077 8.50894Z" fill="white"/>
<path d="M33.8482 17.0089H19.0859V13.446C19.0859 11.7726 20.4914 10.4141 22.2227 10.4141H30.7208C32.4521 10.4141 33.8575 11.7726 33.8575 13.446V17.0089H33.8482Z" fill="#FEB330"/>
<path d="M8.38183 28.1105H7.71167C5.6174 28.1105 3.91406 26.473 3.91406 24.4397V23.7919C3.91406 21.7676 5.60809 20.1211 7.71167 20.1211H8.38183C10.4761 20.1211 12.1794 21.7586 12.1794 23.7919V24.4397C12.1701 26.473 10.4761 28.1105 8.38183 28.1105Z" fill="white"/>
<path d="M15.4262 36.6104H0.664062V33.0476C0.664062 31.3742 2.06954 30.0156 3.80079 30.0156H12.2988C14.0301 30.0156 15.4355 31.3742 15.4355 33.0476V36.6104H15.4262Z" fill="#FEB330"/>
<path d="M26.8077 28.1105H26.1375C24.0432 28.1105 22.3398 26.473 22.3398 24.4397V23.7919C22.3398 21.7676 24.0339 20.1211 26.1375 20.1211H26.8077C28.902 20.1211 30.6053 21.7586 30.6053 23.7919V24.4397C30.596 26.473 28.902 28.1105 26.8077 28.1105Z" fill="white"/>
<path d="M33.8482 36.6104H19.0859V33.0476C19.0859 31.3742 20.4914 30.0156 22.2227 30.0156H30.7208C32.4521 30.0156 33.8575 31.3742 33.8575 33.0476V36.6104H33.8482Z" fill="#2CC161"/>
</svg>
