<svg width="33" height="32" viewBox="0 0 33 32" fill="none" xmlns="http://www.w3.org/2000/svg">
<path d="M9.8984 5C7.86453 5 6.21289 6.68051 6.21289 8.74699C6.21289 10.8111 7.86453 12.4916 9.8984 12.4916C11.9323 12.4916 13.5863 10.8111 13.5863 8.74699C13.5863 6.68051 11.9323 5 9.8984 5Z" fill="black"/>
<path d="M15.7974 17.2361V26.2763H4V17.2361C4 15.033 5.98432 13.2422 8.42403 13.2422H11.3734C13.8131 13.2422 15.7974 15.033 15.7974 17.2361Z" fill="#FBB03B"/>
<path d="M23.3672 5C21.3356 5 19.6816 6.68051 19.6816 8.74699C19.6816 10.8111 21.3356 12.4916 23.3672 12.4916C25.401 12.4916 27.055 10.8111 27.055 8.74699C27.055 6.68051 25.401 5 23.3672 5Z" fill="black"/>
<path d="M29.2662 17.2361V26.2763H17.4688V17.2361C17.4688 15.033 19.4531 13.2422 21.8928 13.2422H24.8421C27.2818 13.2422 29.2662 15.033 29.2662 17.2361Z" fill="#FBB03B"/>
<path fill-rule="evenodd" clip-rule="evenodd" d="M20.995 16.4931L23.8158 19.3139C23.9889 19.487 23.9889 19.7677 23.8158 19.9408L20.995 22.7616C20.8219 22.9347 20.5412 22.9347 20.3681 22.7616C20.195 22.5885 20.195 22.3079 20.3681 22.1348L22.4323 20.0706H9.31836V19.1841H22.4323L20.3681 17.12C20.195 16.9469 20.195 16.6662 20.3681 16.4931C20.5412 16.32 20.8219 16.32 20.995 16.4931Z" fill="black"/>
</svg>
