<svg width="33" height="32" viewBox="0 0 33 32" fill="none" xmlns="http://www.w3.org/2000/svg">
<path d="M27.3488 20.8269C25.2281 23.1924 21.7206 23.6818 19.0289 22.0233C18.4579 21.6698 17.9141 21.1804 17.4247 20.5822L16.5003 19.4403L14.1348 16.4766L12.6938 14.7093C12.4763 14.4374 12.2316 14.2199 12.014 14.084C10.8449 13.3771 9.34949 13.5946 8.42504 14.6006C7.47343 15.6609 7.47343 17.2923 8.42504 18.3527C8.96882 18.9509 9.73013 19.2771 10.5186 19.2771C11.0352 19.2771 11.5518 19.114 12.014 18.8693C12.2587 18.7334 12.4763 18.5158 12.6938 18.244L13.0808 17.7692L15.4713 20.7009C15.0089 21.2434 14.503 21.6943 13.9717 22.0233C11.2799 23.6818 7.77251 23.1924 5.65175 20.8269C3.44942 18.3527 3.44942 14.519 5.65175 12.072C6.92965 10.6309 8.72413 9.89684 10.5186 9.89684C11.715 9.89684 12.8841 10.2231 13.9717 10.9028C14.5426 11.2563 15.0864 11.7457 15.5758 12.3439L16.5003 13.4858L18.8929 16.4495L20.334 18.2168C20.5515 18.4887 20.7962 18.7062 21.0137 18.8421C22.1829 19.549 23.6782 19.3315 24.6027 18.3255C25.5543 17.2651 25.5543 15.6338 24.6027 14.5734C23.6783 13.5674 22.1829 13.3499 21.0137 14.0568C20.769 14.1927 20.5515 14.4103 20.334 14.6821L19.9324 15.1747L17.5168 12.2122C17.9824 11.6631 18.4928 11.2075 19.0289 10.8757C21.7206 9.2171 25.2281 9.70651 27.3488 12.072C29.5512 14.5462 29.5512 18.3799 27.3488 20.8269Z" fill="#FEB330"/>
<path d="M19.0277 22.0233C21.7195 23.6818 25.2269 23.1924 27.3477 20.8269C29.55 18.3799 29.55 14.5462 27.3477 12.072C25.2269 9.70652 21.7195 9.2171 19.0277 10.8757C18.4916 11.2075 17.9813 11.6631 17.5156 12.2122L19.9312 15.1747L20.3328 14.6821C20.5504 14.4103 20.7679 14.1927 21.0126 14.0568C22.1817 13.3499 23.6771 13.5674 24.6016 14.5734C25.5532 15.6338 25.5532 17.2651 24.6016 18.3255C23.6771 19.3315 22.1817 19.549 21.0126 18.8421C20.795 18.7062 20.5504 18.4887 20.3328 18.2168L18.8918 16.4495L17.6955 14.9676L15.3164 17.9585L16.4991 19.4403L17.4236 20.5822C17.913 21.1804 18.4568 21.6698 19.0277 22.0233Z" fill="black"/>
</svg>
