<svg width="19" height="17" viewBox="0 0 19 17" fill="none" xmlns="http://www.w3.org/2000/svg">
<path fill-rule="evenodd" clip-rule="evenodd" d="M18.2665 2.96404V9.7361C18.2665 12.0772 16.7292 13.6044 14.8503 13.6044H4.97355C4.32046 13.6044 3.68746 13.8858 3.25542 14.3881L1.19566 16.7594C0.78371 17.2416 0 16.9503 0 16.3173V3.41618C0 1.52723 1.52723 0 3.40613 0H14.8503C16.7393 0.0100476 18.2665 1.52723 18.2665 2.96404ZM4.03078 5.61581H6.35325V11.0096H4.03078V5.61581ZM10.0163 5.35419H13.0279H13.0876C13.5217 5.38132 13.8527 5.76117 13.8201 6.19527V6.61853C13.8201 6.9007 13.7659 7.18287 13.6736 7.45418L12.7566 10.0697C12.5829 10.6286 12.062 11.003 11.4814 11.003H7.99766C7.68293 11.003 7.42247 10.748 7.42247 10.4278V5.50613C7.42247 5.40845 7.4496 5.30535 7.49843 5.21853L9.39765 2.07126C9.47362 1.93017 9.62013 1.84878 9.7775 1.84878C10.0163 1.8542 10.2062 2.04955 10.2062 2.28831L10.0163 5.35419Z" fill="#0CBD6A"/>
</svg>
