<svg id="Layer_1" data-name="Layer 1" xmlns="http://www.w3.org/2000/svg" xmlns:xlink="http://www.w3.org/1999/xlink" viewBox="0 0 56 32"><defs><style>.cls-1{fill:#fff;}.cls-2{mask:url(#mask);}.cls-3,.cls-4{fill:none;}.cls-3,.cls-4,.cls-6{stroke:#feb330;}.cls-3{stroke-width:6.74px;}.cls-4,.cls-6{stroke-width:3.37px;}.cls-5{mask:url(#mask-2);}.cls-6{fill:#feb330;}</style><mask id="mask" x="15.13" y="0.52" width="38.78" height="30.52" maskUnits="userSpaceOnUse"><g id="path-1-inside-1"><rect class="cls-1" x="18.5" y="3.89" width="32.05" height="23.78" rx="1.68"/></g></mask><mask id="mask-2" x="-1.68" y="9.7" width="14.61" height="23.4" maskUnits="userSpaceOnUse"><g id="path-5-inside-2"><rect class="cls-1" y="11.38" width="11.24" height="20.03" rx="0.84"/></g></mask></defs><g class="cls-2"><rect class="cls-3" x="18.5" y="3.89" width="32.05" height="23.78" rx="1.68"/></g><rect x="8.43" y="0.94" width="29.84" height="20.54" rx="1.68"/><path class="cls-1" d="M28.22,10.49a.84.84,0,0,1,0,1.5l-7.62,3.9a.84.84,0,0,1-1.22-.75V7.34a.84.84,0,0,1,1.22-.75Z"/><line class="cls-4" x1="13.53" y1="29.73" x2="55.52" y2="29.73"/><g class="cls-5"><rect class="cls-6" y="11.38" width="11.24" height="20.03" rx="0.84"/></g></svg>