<svg width="19" height="18" viewBox="0 0 19 18" fill="none" xmlns="http://www.w3.org/2000/svg">
<path fill-rule="evenodd" clip-rule="evenodd" d="M12.5038 0C13.2957 0 14.0178 0.390801 14.4137 1.08045C14.8097 1.7701 14.8097 2.57469 14.3904 3.28732C13.9945 3.95398 13.2724 4.36777 12.4805 4.36777H6.72747C6.05201 4.36777 5.44643 4.02295 5.09705 3.44824C4.74767 2.85055 4.74767 2.1609 5.09705 1.58619C5.44643 1.01148 6.05201 0.66666 6.72747 0.66666C7.40293 0.66666 8.00851 1.01148 8.35789 1.58619L9.33614 3.21836L10.5939 1.08045C10.9899 0.413789 11.7119 0 12.5038 0ZM5.91226 2.96549C6.0753 3.24135 6.37809 3.42525 6.72747 3.42525H8.35789L7.54268 2.02297C7.37964 1.74711 7.05355 1.5632 6.72747 1.5632C6.40139 1.5632 6.0753 1.72412 5.91226 2.02297C5.74922 2.32182 5.74922 2.66664 5.91226 2.96549ZM12.4805 3.42525C12.9464 3.42525 13.3656 3.19537 13.5985 2.80457C13.8314 2.41377 13.8314 1.93102 13.5985 1.54021C13.3656 1.14941 12.9231 0.919531 12.4805 0.919531C12.038 0.919531 11.6187 1.14941 11.3858 1.54021L10.2678 3.42525H12.4805ZM9.01005 9.03346V5.14844H1.60329C1.20733 5.14844 0.904541 5.44729 0.904541 5.83809V8.34381C0.904541 8.73461 1.20733 9.03346 1.60329 9.03346H9.01005ZM9.9426 9.95312H17.0466V17.0795C17.0466 17.5852 16.6273 17.999 16.1149 17.999H9.9426V9.95312ZM1.90649 9.95313H9.01046V17.999H2.83816C2.32574 17.999 1.90649 17.5852 1.90649 17.0795V9.95313ZM18.0481 5.8382V8.34392C18.0481 8.73472 17.7453 9.03357 17.3494 9.03357H9.9426V5.14855H17.3494C17.722 5.14855 18.0481 5.47038 18.0481 5.8382Z" fill="#4E218F"/>
</svg>
