<svg width="33" height="32" viewBox="0 0 33 32" fill="none" xmlns="http://www.w3.org/2000/svg">
<path fill-rule="evenodd" clip-rule="evenodd" d="M17.2891 20.0561C17.289 20.0562 17.2889 20.0563 17.2888 20.0565L12.9745 26.0363L12.5996 25.7767L16.9146 19.796L16.9153 19.7951C17.2303 19.3631 17.8845 19.3449 18.1873 19.7997L22.4996 25.7767L22.1247 26.0363L17.8068 20.0515L17.8041 20.0474C17.6925 19.8773 17.4322 19.8603 17.2891 20.0561Z" fill="black"/>
<path fill-rule="evenodd" clip-rule="evenodd" d="M18.3929 19.657C17.9835 19.0482 17.1203 19.09 16.7136 19.6478L16.7125 19.6493L12.248 25.8372L13.0341 26.3814L17.4911 20.2038C17.5153 20.1708 17.5405 20.1644 17.5561 20.1646C17.5746 20.1647 17.5879 20.1731 17.5954 20.1846L17.5981 20.1887L22.0658 26.3814L22.8518 25.8372L18.3929 19.657Z" fill="black"/>
<path d="M26.637 19.2003H7.82854C7.33277 19.2003 6.96094 18.7675 6.96094 18.2419V16.3871V13.2339V10.8535V6.95833C6.96094 6.4328 7.36375 6 7.82854 6H26.606C27.1018 6 27.4736 6.4328 27.4736 6.95833V18.211C27.5046 18.7675 27.1018 19.2003 26.637 19.2003Z" fill="white"/>
<path d="M25.6761 19.2003H6.86761C6.37183 19.2003 6 18.7675 6 18.2419V16.3871V13.2339V10.8535V6.95833C6 6.4328 6.40282 6 6.86761 6H25.6451C26.1408 6 26.5127 6.4328 26.5127 6.95833V18.211C26.5437 18.7675 26.1408 19.2003 25.6761 19.2003Z" fill="black"/>
<path d="M27.1331 19.2003H8.32464C7.82886 19.2003 7.45703 18.7675 7.45703 18.2419V16.3871V13.2339V10.8535V6.95833C7.45703 6.4328 7.85985 6 8.32464 6H27.1021C27.5979 6 27.9697 6.4328 27.9697 6.95833V18.211C28.0007 18.7675 27.6289 19.2003 27.1331 19.2003Z" fill="#FFB412"/>
<path d="M20.9977 12.2435L16.0089 9.36853C15.761 9.21396 15.4512 9.39945 15.4512 9.67767V15.4277C15.4512 15.7059 15.761 15.8914 16.0089 15.7368L20.9977 12.8618C21.2455 12.7382 21.2455 12.3672 20.9977 12.2435Z" fill="white"/>
</svg>
