<svg xmlns="http://www.w3.org/2000/svg" width="32" height="26" fill="none"><path fill="#1E1B1C" d="M31.31 13.597a.077.077 0 00-.07-.014l-.077.023-.011.003c-.059.017-.109.032-.159.052-.788.313-1.408.85-1.896 1.64-.12.195-.214.398-.289.6.122-.68.15-.946.172-1.707l.001-.097c0-.088 0-.172.02-.248.023-.09.069-.18.114-.266l.036-.071a.053.053 0 01.02-.012 1.17 1.17 0 00.609-.293c.186-.164.34-.365.455-.598a6.007 6.007 0 00.619-2.739c0-.095-.012-.187-.024-.288a5.42 5.42 0 01-.016-.138.076.076 0 00-.116-.058.678.678 0 00-.09.056 4.104 4.104 0 00-1.674 2.98l-.02-.25-.003-.031a74.835 74.835 0 01-.075-1.003 1.936 1.936 0 00-.038-.246c-.03-.153-.059-.298-.013-.45.01-.034.02-.068.028-.103.022-.085.126-.216.287-.36l.006-.005c.06-.05.364-.33.537-.88.175-.56.162-1.146.152-1.573V7.51c-.013-.588-.076-1.03-.206-1.436a2.746 2.746 0 00-.057-.156 8.252 8.252 0 01-.034-.087.076.076 0 00-.058-.05h-.013a.076.076 0 00-.06.028l-.125.153a3.82 3.82 0 00-.88 2.564c.003.17.015.344.038.524a14.939 14.939 0 00-.537-1.539.113.113 0 01-.008-.035l-.001-.068c-.002-.098-.005-.199 0-.298 0-.017.011-.046.033-.076.032-.041.067-.082.103-.125.062-.071.126-.146.176-.23.163-.273.24-.596.241-1.015.002-.494-.074-1.013-.24-1.635-.09-.34-.227-.78-.482-1.18a1.165 1.165 0 00-.086-.117c-.015-.02-.035-.03-.067-.03a.077.077 0 00-.061.039 3.88 3.88 0 00-.487 1.885 5.085 5.085 0 00.197 1.464 14.584 14.584 0 00-.953-1.512l-.008-.011c-.008-.01-.011-.016-.01-.012a9.188 9.188 0 01-.048-.389 2.629 2.629 0 01.093-.155c.054-.081.109-.165.144-.26.107-.283.13-.605.073-.984-.126-.837-.495-1.59-1.128-2.305a2.666 2.666 0 00-.213-.206l-.021-.02c-.03-.026-.06-.054-.091-.083a.076.076 0 00-.075-.018.077.077 0 00-.052.056l-.014.061c-.01.04-.017.072-.022.104-.085.508-.079 1.052.02 1.664.096.607.29 1.13.587 1.585-.446-.526-.88-.967-1.332-1.358a.042.042 0 01-.006-.012c.036-.306-.04-.593-.23-.88a2.328 2.328 0 00-1.032-.851c-.26-.113-.53-.213-.795-.311-.126-.047-.253-.094-.383-.144-.131-.052-.187-.062-.217-.033-.04.036-.03.067-.013.124l.005.018c.16.538.372.963.648 1.3.508.62 1.101.935 1.814.963a.107.107 0 01.052.015c.1.075.175.135.24.194.206.189.41.39.609.602-.296-.184-.658-.267-1.065-.246-.223.01-.444.043-.658.075l-.008.001-.189.028c-.137.018-.276.043-.398.064-.05.009-.168.036-.196.093a.065.065 0 00.002.06.37.37 0 00.032.049c.353.458.756.76 1.231.922.58.2 1.113.183 1.592-.051a.539.539 0 01.262-.061c.076 0 .133.012.152.016.029.005.067.021.075.031.298.392.58.81.844 1.249-.223-.217-.514-.363-.91-.458-.347-.083-.702-.1-1.045-.118l-.115-.006c-.107-.005-.215-.012-.326-.02l-.186-.01a.076.076 0 00-.06.03.076.076 0 00-.01.072.64.64 0 00.028.068c.361.606.786 1.024 1.299 1.28.5.25.953.317 1.409.207a.77.77 0 01.177-.02c.194 0 .33.06.358.115.251.518.475 1.056.668 1.605a2.162 2.162 0 00-.845-.676c-.356-.168-.727-.322-1.092-.474a53.18 53.18 0 01-.472-.196.076.076 0 00-.107.07c0 .049.521 1.494 1.278 2.063.308.233.688.472 1.167.483.144.003.292.023.404.15.017.02.04.037.065.045.038.013.048.036.067.116.155.651.268 1.323.338 2.005a2.713 2.713 0 00-.073-.21c-.17-.429-.455-.805-.897-1.182-.228-.195-.467-.384-.698-.567l-.01-.009-.315-.25a2.801 2.801 0 01-.067-.056l-.066-.056a.078.078 0 00-.083-.01.076.076 0 00-.042.073l.008.132.001.02c.006.085.01.167.02.247.081.782.313 1.434.71 1.995.245.347.597.77 1.146.97a.71.71 0 01.334.257.542.542 0 01.114.382c-.01.601-.052 1.197-.128 1.78a2.45 2.45 0 00-.112-.503 3.867 3.867 0 00-.567-1.069c-.226-.312-.462-.624-.69-.927l-.015-.02-.268-.357a.102.102 0 00-.054-.037.077.077 0 00-.106.044l-.003.009a.185.185 0 00-.008.03c-.157.937-.06 1.776.294 2.566.174.386.407.824.817 1.139.187.143.335.345.416.567.018.048.017.069.015.077-.174.719-.4 1.413-.676 2.07a2.62 2.62 0 00-.015-1.087c-.115-.534-.313-1.051-.49-1.494l-.052-.133-.252-.633a.079.079 0 00-.073-.049.075.075 0 00-.066.042l-.028.052-.033.066c-.355.8-.475 1.621-.356 2.44.085.585.229 1.003.466 1.358.123.183.24.387.261.638.005.06.003.1-.024.147-.3.525-.635 1.02-1.003 1.48l.004-.008c.265-.483.273-1.006.246-1.454-.024-.384-.068-.767-.11-1.138l-.002-.021-.05-.446a17.551 17.551 0 00-.03-.254l-.013-.116a.075.075 0 00-.04-.059c-.042-.021-.11.012-.183.099a4.002 4.002 0 00-.926 1.994c-.117.756-.054 1.404.193 1.98a.18.18 0 01.007.056l-.014.331a.111.111 0 01-.024.06 8.868 8.868 0 01-1.646 1.253c.28-.254.482-.584.613-1.003.144-.465.219-.948.29-1.417l.007-.041c.026-.165.052-.33.08-.497l.03-.19a.076.076 0 00-.105-.083l-.026.011a1.01 1.01 0 00-.077.035c-1.12.559-1.857 1.863-1.753 3.1.017.194-.001.377-.054.557a.077.077 0 01-.027.037 8.858 8.858 0 01-1.546.5.076.076 0 00-.042.124c.056.066.104.136.143.21a.08.08 0 00.084.038 8.782 8.782 0 001.2-.364.144.144 0 01.077-.015c.085.011.175.029.274.053.02.005.038.015.038.014.218.434.592.71 1.145.845.12.029.244.05.368.063.13.014.275.021.431.021.216 0 .37-.013.372-.014a3.98 3.98 0 001.25-.329c.148-.069.318-.162.448-.327a.076.076 0 00-.01-.104 3.904 3.904 0 00-1.145-.722c-.597-.237-1.14-.301-1.673-.199a2.5 2.5 0 00-.233.058 9.535 9.535 0 001.426-1.047.077.077 0 01.034-.017 3.01 3.01 0 01.272-.035c.01 0 .021.005.023.005.271.304.621.452 1.07.452l.068-.001c.487-.016.977-.15 1.457-.399.348-.181.71-.393 1.005-.708.066-.07.124-.15.175-.22l.005-.006c.023-.031.046-.063.07-.093a.077.077 0 00.015-.06.078.078 0 00-.036-.052 2.518 2.518 0 00-.244-.114c-.762-.294-1.532-.325-2.265-.088a2.41 2.41 0 00-.687.353c.407-.473.784-.992 1.127-1.55l.016-.025c.03-.02.06-.037.091-.055.055-.032.112-.065.165-.105.045-.033.057-.034.103-.005a.696.696 0 00.204.08c.38.098.765.05 1.19-.15.388-.182.686-.47.95-.753.386-.414.637-.787.793-1.175.032-.081.055-.165.08-.253l.03-.11a.076.076 0 00-.047-.094l-.032-.003c-.157 0-1.557.023-2.377.818a4.248 4.248 0 00-.483.558c.324-.686.598-1.41.82-2.16l.003-.011c.003-.01.007-.023.01-.027l.214-.294c.008-.012.009-.012.021-.012h.02l.045.003c.16.01.253.009.33-.003.306-.048.58-.202.842-.47.611-.627 1.032-1.409 1.286-2.39.027-.106.035-.212.043-.324.004-.052.008-.104.014-.159a.077.077 0 00-.028-.067zM10.573 25.011a8.874 8.874 0 01-1.545-.5.078.078 0 01-.027-.037 1.496 1.496 0 01-.055-.556c.104-1.238-.633-2.542-1.752-3.101a1.03 1.03 0 00-.077-.035l-.027-.01a.076.076 0 00-.105.082l.031.19.08.496.006.043c.072.468.146.951.29 1.416.131.419.333.75.613 1.002A8.858 8.858 0 016.36 22.75a.11.11 0 01-.025-.06l-.013-.33c0-.012 0-.044.006-.06.247-.574.31-1.222.194-1.978a4.002 4.002 0 00-.926-1.994c-.06-.07-.11-.105-.154-.105a.06.06 0 00-.028.006.076.076 0 00-.042.06l-.013.115-.03.254a42.62 42.62 0 01-.05.446l-.002.021c-.042.37-.086.754-.11 1.138-.026.448-.018.97.246 1.454l.004.008c-.367-.46-.703-.955-1.003-1.48-.026-.047-.029-.088-.024-.147.022-.251.138-.455.261-.638.238-.355.382-.773.466-1.358.12-.819 0-1.64-.356-2.44-.01-.022-.02-.043-.033-.066l-.028-.053a.076.076 0 00-.139.007c-.085.218-.169.427-.251.634l-.053.133c-.177.443-.374.96-.49 1.494a2.62 2.62 0 00-.014 1.086 13.57 13.57 0 01-.677-2.07c-.002-.007-.002-.028.015-.076.081-.222.23-.424.417-.568.41-.314.643-.752.816-1.138.355-.79.452-1.63.295-2.566a.2.2 0 00-.009-.03l-.002-.008a.077.077 0 00-.043-.047.08.08 0 00-.061 0 .105.105 0 00-.055.038l-.27.358-.015.02c-.228.303-.463.615-.69.927-.262.36-.447.71-.566 1.07a2.453 2.453 0 00-.113.503 15.82 15.82 0 01-.127-1.78.542.542 0 01.114-.383.71.71 0 01.334-.257c.548-.2.9-.623 1.146-.97.396-.56.628-1.213.71-1.995.009-.08.014-.162.02-.248v-.02l.009-.131a.076.076 0 00-.042-.073.078.078 0 00-.084.01l-.065.056-.067.056-.315.25-.01.009c-.232.183-.47.372-.698.567-.443.377-.728.753-.897 1.182-.028.071-.053.141-.074.21.07-.682.183-1.354.338-2.005.02-.08.03-.103.068-.116a.147.147 0 00.064-.044c.113-.128.26-.148.404-.151.48-.011.86-.25 1.168-.483.756-.57 1.277-2.015 1.277-2.064a.076.076 0 00-.106-.07l-.478.2c-.36.149-.73.302-1.087.47-.359.17-.642.397-.845.677a15.41 15.41 0 01.668-1.604c.029-.056.164-.115.359-.115a.77.77 0 01.177.02c.456.109.908.042 1.409-.208.512-.256.937-.675 1.3-1.28a.63.63 0 00.027-.068.076.076 0 00-.075-.103h-.001l-.18.012-.327.019-.115.006c-.343.017-.698.035-1.045.118-.396.095-.687.24-.91.458.264-.44.547-.857.844-1.249.008-.01.047-.026.078-.031a.683.683 0 01.15-.016c.1 0 .188.02.263.062.476.232 1.01.25 1.59.05.476-.162.878-.464 1.232-.922a.376.376 0 00.03-.048.065.065 0 00.003-.06c-.027-.058-.146-.085-.196-.094-.122-.021-.26-.046-.398-.064a23.784 23.784 0 01-.189-.028h-.008c-.214-.032-.435-.065-.658-.076-.407-.021-.768.062-1.064.246.199-.212.402-.413.608-.602.066-.06.14-.12.24-.194a.107.107 0 01.052-.015c.713-.028 1.307-.343 1.814-.962.276-.337.488-.763.648-1.3l.005-.02C9.9.084 9.91.053 9.871.017c-.03-.028-.084-.02-.222.035l-.382.143c-.261.097-.53.197-.791.31-.435.189-.783.476-1.033.852-.19.286-.266.574-.23.877a.06.06 0 01-.004.013c-.454.392-.888.833-1.334 1.359.297-.455.491-.978.588-1.585.098-.611.104-1.156.02-1.664A1.711 1.711 0 006.46.253L6.446.19a.077.077 0 00-.052-.055.078.078 0 00-.074.017c-.031.03-.062.057-.092.084l-.02.019c-.077.069-.149.133-.214.207-.633.713-1.002 1.467-1.128 2.304-.058.379-.034.7.073.985.035.094.09.178.145.262.026.038.05.076.074.115.017.028.018.036.018.034-.01.112-.025.237-.046.387a.142.142 0 01-.012.018l-.008.01a14.59 14.59 0 00-.952 1.513c.113-.392.203-.888.196-1.465a3.882 3.882 0 00-.487-1.885c-.012-.023-.035-.037-.067-.04a.076.076 0 00-.06.032l-.03.038c-.02.026-.04.052-.057.079-.254.4-.391.84-.482 1.179-.166.622-.242 1.142-.24 1.635.002.42.078.742.241 1.015.05.084.114.159.179.234.034.04.069.08.1.122.022.029.033.058.034.075.004.1.002.2 0 .298l-.002.068a.109.109 0 01-.007.035c-.204.495-.384 1.01-.538 1.54.023-.18.036-.355.039-.525a3.82 3.82 0 00-.88-2.564L1.97 5.81a.075.075 0 00-.06-.028l-.012.001a.076.076 0 00-.059.049l-.033.087c-.021.054-.041.105-.058.157-.13.405-.193.848-.206 1.435v.011c-.01.428-.023 1.013.152 1.573.173.551.478.83.537.88l.006.006c.16.143.266.274.287.36l.028.103c.046.151.017.296-.013.452-.016.079-.032.16-.037.243-.023.335-.05.674-.076 1.003l-.002.03-.02.252A4.103 4.103 0 00.73 9.443a.729.729 0 00-.09-.057.076.076 0 00-.116.057l-.016.142c-.012.098-.023.19-.024.285a6.005 6.005 0 00.62 2.74c.115.232.268.433.454.598.185.162.384.258.61.292.004 0 .016.008.018.01l.037.073c.045.087.091.176.115.267.019.076.019.159.019.247v.097c.022.761.05 1.027.173 1.708a3.317 3.317 0 00-.289-.601c-.488-.79-1.108-1.327-1.896-1.64-.05-.02-.1-.034-.159-.051l-.011-.004a5.931 5.931 0 01-.076-.022.076.076 0 00-.099.08c.006.055.01.107.014.159.008.112.016.218.043.323.254.982.675 1.764 1.286 2.39.261.269.537.422.842.47.077.013.17.014.33.004l.046-.003h.019c.012 0 .013 0 .022.013l.213.293a.143.143 0 01.01.027l.003.01c.222.752.496 1.475.82 2.161a4.224 4.224 0 00-.483-.558c-.82-.795-2.22-.818-2.377-.818h-.02l-.012.003a.076.076 0 00-.048.093c.011.037.022.074.033.117.023.082.046.166.078.247.156.388.407.76.792 1.175.265.283.563.57.951.753.425.2.809.248 1.19.15a.694.694 0 00.204-.08c.046-.03.058-.029.103.005.053.04.11.073.165.105l.09.054.018.025c.342.559.719 1.078 1.126 1.551a2.411 2.411 0 00-.686-.353c-.734-.237-1.504-.207-2.266.088-.114.044-.238.11-.247.115a.076.076 0 00-.018.11l.07.093.005.007c.051.07.11.15.175.22.294.315.657.527 1.005.708a3.39 3.39 0 001.526.4c.448 0 .798-.148 1.068-.45a.054.054 0 01.021-.007c.103.007.201.022.274.034a.078.078 0 01.035.017c.45.4.928.75 1.426 1.047a2.567 2.567 0 00-.233-.057c-.533-.102-1.076-.038-1.673.199-.403.16-.778.396-1.146.721a.076.076 0 00-.01.104c.131.166.3.259.449.327.362.169.771.277 1.25.33.002 0 .156.014.372.014.156 0 .3-.008.43-.021a2.87 2.87 0 00.37-.063c.552-.135.926-.411 1.14-.84a.113.113 0 01.042-.019c.1-.025.19-.042.274-.054a.152.152 0 01.077.015 8.767 8.767 0 001.217.366.076.076 0 00.067-.04c.04-.074.088-.144.143-.21a.076.076 0 00-.042-.123z"/><path fill="#1E1B1C" d="M19.396 14.87l3.156-3.075a.393.393 0 00-.218-.67l-4.36-.634-1.952-3.952a.392.392 0 00-.704 0l-1.95 3.952-4.362.633a.393.393 0 00-.217.67l3.156 3.077-.745 4.344a.392.392 0 00.57.413l3.9-2.05 3.901 2.05a.391.391 0 00.57-.413l-.745-4.344z"/></svg>