<svg id="Layer_1" data-name="Layer 1" xmlns="http://www.w3.org/2000/svg" viewBox="0 0 56 32"><defs><style>.cls-1{fill:#feb330;}.cls-2{fill:#fff;}.cls-3{fill:#1e1b1c;}</style></defs><path class="cls-1" d="M33.82,31.27H22.18A1.21,1.21,0,0,1,21.39,30c0-.62,0-1.24,0-1.86a1,1,0,0,1,1.14-1.15h2.22c.14,0,.24,0,.3-.17a10.67,10.67,0,0,0,.7-4,.5.5,0,0,0-.18-.33A1.72,1.72,0,0,1,24.82,21a.35.35,0,0,0-.28-.38c-.55-.2-1.09-.4-1.61-.64a15.13,15.13,0,0,1-4.48-3.42.79.79,0,0,1-.15-.94c.25-.55.52-1.1.77-1.65s.5-1.15.75-1.73l-.29-.17A8.14,8.14,0,0,1,16,8.17a11,11,0,0,1-.74-5.55,1.36,1.36,0,0,1,1.49-1.35h2.57c.11,0,.27,0,.32-.1A1.55,1.55,0,0,1,21.05.55h14a1.47,1.47,0,0,1,1.28.6.42.42,0,0,0,.3.11H39.3a1.36,1.36,0,0,1,1.41,1.27,11.49,11.49,0,0,1-.24,4.17,8.22,8.22,0,0,1-3.14,4.81c-.36.27-.75.51-1.13.77l.06.17c.48,1,.94,2.1,1.42,3.14a.81.81,0,0,1-.11,1,14.13,14.13,0,0,1-6.14,4.09.32.32,0,0,0-.25.37,1.64,1.64,0,0,1-.74,1.42.43.43,0,0,0-.21.42,11.19,11.19,0,0,0,.7,3.88c.06.16.15.19.31.19.76,0,1.52,0,2.28,0A1,1,0,0,1,34.6,28c0,.64,0,1.28,0,1.92A1.21,1.21,0,0,1,33.82,31.27ZM35.25,9.63A6.16,6.16,0,0,0,38.05,4c-.43,0-.85,0-1.28,0a.55.55,0,0,0-.56.25,1.22,1.22,0,0,1-.44.33,1.41,1.41,0,0,1-1.22,0A13.51,13.51,0,0,0,35.25,9.63ZM18,4c-.33,2,1.17,5,2.8,5.63a13.46,13.46,0,0,0,.68-5h-.1a1.35,1.35,0,0,1-1.67-.49.3.3,0,0,0-.19-.1Zm5.88,2.58h-.07a.19.19,0,0,0,0,.08l-.12.62a20.76,20.76,0,0,1-2.73,7.92.59.59,0,0,0,0,.68,4.11,4.11,0,0,0,1.7,1.47,1.41,1.41,0,0,0,1.06.11c-.4-.45-.8-.92-1.22-1.38s-.43-.65-.07-1a.7.7,0,0,0,.11-.21,14,14,0,0,0,1.44-5.89C23.94,8.15,23.87,7.35,23.84,6.56Z"/><path class="cls-2" d="M23.84,6.56c0,.79.1,1.59.08,2.38a14,14,0,0,1-1.44,5.89.7.7,0,0,1-.11.21c-.36.37-.23.7.07,1s.82.93,1.22,1.38a1.41,1.41,0,0,1-1.06-.11,4.11,4.11,0,0,1-1.7-1.47.59.59,0,0,1,0-.68,20.76,20.76,0,0,0,2.73-7.92l.12-.62a.19.19,0,0,1,0-.08Z"/><rect class="cls-3" x="18.87" y="28.02" width="18.26" height="3.43" rx="1.71"/></svg>