<svg width="25" height="20" viewBox="0 0 25 20" fill="none" xmlns="http://www.w3.org/2000/svg">
<path d="M7.50636 0.513672C9.7263 0.513672 11.5371 2.33065 11.5371 4.55809C11.5371 6.78556 9.7263 8.60678 7.50636 8.60678C5.28641 8.60678 3.47561 6.78556 3.47561 4.55809C3.47561 2.33065 5.28641 0.513672 7.50636 0.513672Z" fill="#F1495E"/>
<path d="M7.50645 9.75586C11.6447 9.75586 14.994 13.1168 14.994 17.2688V18.4249C14.9934 18.5775 14.9328 18.7237 14.8253 18.8316C14.7177 18.9395 14.572 19.0004 14.42 19.0009H0.592943C0.440868 19.0004 0.295177 18.9395 0.187647 18.8316C0.0801172 18.7237 0.0194731 18.5775 0.0189447 18.4249V17.2688C0.0189447 13.1168 3.3682 9.75586 7.50645 9.75586Z" fill="#F1495E"/>
<path d="M21.6491 0C23.0932 0 24.2695 1.18026 24.2695 2.62926C24.2695 2.62943 24.2695 2.62962 24.2695 2.6298C24.2687 3.32675 23.9923 3.99478 23.5008 4.48724C22.102 5.89438 19.4761 8.52769 19.4761 8.52769C19.4269 8.57698 19.3603 8.60466 19.2908 8.60466C19.2213 8.60466 19.1547 8.57698 19.1055 8.52769L15.0797 4.48825C14.5625 3.96922 14.3218 3.24397 14.312 2.63338C14.312 2.63205 14.312 2.63073 14.312 2.62941C14.312 1.18041 15.4883 0.000151633 16.9324 0.000151633C17.9677 0.000151633 18.6469 0.547611 19.0328 1.07753C19.1565 1.24727 19.215 1.39259 19.2898 1.54535C19.3641 1.39252 19.4224 1.24732 19.5457 1.07753C19.9308 0.547264 20.6102 0.000151633 21.6491 0.000151633V0Z" fill="#F1495E"/>
</svg>
