<svg width="22" height="21" viewBox="0 0 22 21" fill="none" xmlns="http://www.w3.org/2000/svg">
<path d="M8.59721 0C10.7779 0 12.8692 0.866266 14.4112 2.40823C15.9532 3.9502 16.8194 6.04155 16.8194 8.22221C16.8194 10.0242 16.2395 11.6903 15.2572 13.0456L20.767 18.5554C21.0052 18.7901 21.1436 19.1078 21.1534 19.4421C21.1632 19.7764 21.0436 20.1016 20.8195 20.3499C20.5954 20.5982 20.2842 20.7504 19.9506 20.7749C19.6171 20.7993 19.2869 20.6941 19.029 20.4811L18.9304 20.392L13.4206 14.8822C12.0187 15.9003 10.3298 16.4473 8.59721 16.4444C6.41655 16.4444 4.3252 15.5782 2.78323 14.0362C1.24127 12.4942 0.375 10.4029 0.375 8.22221C0.375 6.04155 1.24127 3.9502 2.78323 2.40823C4.3252 0.866266 6.41655 3.24945e-08 8.59721 0ZM8.59721 2.59649C7.10518 2.59649 5.67425 3.1892 4.61923 4.24423C3.5642 5.29925 2.97149 6.73018 2.97149 8.22221C2.97149 9.71425 3.5642 11.1452 4.61923 12.2002C5.67425 13.2552 7.10518 13.8479 8.59721 13.8479C10.0892 13.8479 11.5202 13.2552 12.5752 12.2002C13.6302 11.1452 14.2229 9.71425 14.2229 8.22221C14.2229 6.73018 13.6302 5.29925 12.5752 4.24423C11.5202 3.1892 10.0892 2.59649 8.59721 2.59649Z" fill="#FEB330"/>
</svg>
