<svg width="20" height="15" viewBox="0 0 20 15" fill="none" xmlns="http://www.w3.org/2000/svg">
<mask id="path-1-inside-1" fill="white">
<path fill-rule="evenodd" clip-rule="evenodd" d="M3.03448 0C1.35858 0 0 1.35859 0 3.03448V11.7586C0 13.4345 1.35858 14.7931 3.03448 14.7931H16.9655C18.6414 14.7931 20 13.4345 20 11.7586V3.03448C20 1.35858 18.6414 0 16.9655 0H3.03448ZM12.8798 8.17937L8.0129 11.1508C7.56821 11.4166 7 11.1025 7 10.5952V4.65227C7 4.14495 7.56821 3.83089 8.0129 4.09663L12.8798 7.06809C13.275 7.33383 13.275 7.91363 12.8798 8.17937Z"/>
</mask>
<path fill-rule="evenodd" clip-rule="evenodd" d="M3.03448 0C1.35858 0 0 1.35859 0 3.03448V11.7586C0 13.4345 1.35858 14.7931 3.03448 14.7931H16.9655C18.6414 14.7931 20 13.4345 20 11.7586V3.03448C20 1.35858 18.6414 0 16.9655 0H3.03448ZM12.8798 8.17937L8.0129 11.1508C7.56821 11.4166 7 11.1025 7 10.5952V4.65227C7 4.14495 7.56821 3.83089 8.0129 4.09663L12.8798 7.06809C13.275 7.33383 13.275 7.91363 12.8798 8.17937Z" fill="#FF5768"/>
<path d="M8.0129 11.1508L8.59665 12.1277L8.60588 12.1221L8.0129 11.1508ZM12.8798 8.17937L13.4727 9.15059L13.494 9.13762L13.5146 9.12373L12.8798 8.17937ZM8.0129 4.09663L8.6059 3.12537L8.59663 3.11983L8.0129 4.09663ZM12.8798 7.06809L13.5146 6.12374L13.494 6.10985L13.4727 6.09688L12.8798 7.06809ZM1.13793 3.03448C1.13793 1.98705 1.98705 1.13793 3.03448 1.13793V-1.13793C0.730121 -1.13793 -1.13793 0.730125 -1.13793 3.03448H1.13793ZM1.13793 11.7586V3.03448H-1.13793V11.7586H1.13793ZM3.03448 13.6552C1.98705 13.6552 1.13793 12.8061 1.13793 11.7586H-1.13793C-1.13793 14.063 0.730123 15.931 3.03448 15.931V13.6552ZM16.9655 13.6552H3.03448V15.931H16.9655V13.6552ZM18.8621 11.7586C18.8621 12.8061 18.013 13.6552 16.9655 13.6552V15.931C19.2699 15.931 21.1379 14.063 21.1379 11.7586H18.8621ZM18.8621 3.03448V11.7586H21.1379V3.03448H18.8621ZM16.9655 1.13793C18.013 1.13793 18.8621 1.98705 18.8621 3.03448H21.1379C21.1379 0.730122 19.2699 -1.13793 16.9655 -1.13793V1.13793ZM3.03448 1.13793H16.9655V-1.13793H3.03448V1.13793ZM8.60588 12.1221L13.4727 9.15059L12.2868 7.20815L7.41992 10.1796L8.60588 12.1221ZM5.86207 10.5952C5.86207 12.0265 7.42839 12.8258 8.59663 12.1276L7.42917 10.174C7.70803 10.0074 8.13793 10.1785 8.13793 10.5952H5.86207ZM5.86207 4.65227V10.5952H8.13793V4.65227H5.86207ZM8.59663 3.11983C7.42839 2.4217 5.86207 3.22094 5.86207 4.65227H8.13793C8.13793 5.06896 7.70803 5.24008 7.42917 5.07344L8.59663 3.11983ZM13.4727 6.09688L8.60588 3.12542L7.41992 5.06785L12.2868 8.03931L13.4727 6.09688ZM13.5146 9.12373C14.5806 8.40706 14.5806 6.8404 13.5146 6.12374L12.2449 8.01245C11.9694 7.82727 11.9694 7.4202 12.2449 7.23501L13.5146 9.12373Z" fill="#FF5C77" mask="url(#path-1-inside-1)"/>
</svg>
